<?xml version="1.0" encoding="utf-8"?>
<!-- Generator: Adobe Illustrator 24.1.1, SVG Export Plug-In . SVG Version: 6.00 Build 0)  -->
<svg version="1.1" id="Layer_1" xmlns="http://www.w3.org/2000/svg" xmlns:xlink="http://www.w3.org/1999/xlink" x="0px" y="0px"
	 viewBox="0 0 20 20" style="enable-background:new 0 0 20 20;" xml:space="preserve">
<style type="text/css">
	.st0{fill:#4FB3B3;}
	.st1{fill:#FFFFFF;}
</style>
<path class="st0" d="M5.7,0h8.6C17.4,0,20,2.6,20,5.7v8.6c0,3.1-2.6,5.7-5.7,5.7H5.7C2.6,20,0,17.4,0,14.3V5.7C0,2.6,2.6,0,5.7,0z"
	/>
<path class="st1" d="M8.2,1.5h5.6c2.1,0,3.8,1.7,3.8,3.8v8.8c0,2.1-1.7,3.8-3.8,3.8H8.2c-2.1,0-3.8-1.7-3.8-3.8V5.3
	C4.3,3.2,6.1,1.5,8.2,1.5z"/>
<path class="st0" d="M10,20c5.5,0,10-4.5,10-10S15.5,0,10,0S0,4.5,0,10S4.5,20,10,20z M10,5l5,5h-4v5H9v-5H5L10,5z"/>
</svg>
