<svg id="Layer_1" data-name="Layer 1" xmlns="http://www.w3.org/2000/svg" viewBox="0 0 286.66 346.86"><defs><style>.cls-1,.cls-10,.cls-2,.cls-3,.cls-4,.cls-5,.cls-6,.cls-7,.cls-8,.cls-9{fill:none;stroke-width:2px;}.cls-1{stroke:#ccdcff;}.cls-2{stroke:gray;}.cls-3{stroke:#a9bcfb;}.cls-4{stroke:#e5eeff;}.cls-5{stroke:#656f80;}.cls-6{stroke:#b1cbff;}.cls-7{stroke:#4c5d80;}.cls-8{stroke:#2a3d7b;}.cls-9{stroke:#8fabfb;}.cls-10{stroke:#7699fb;}.cls-11{fill:#caddff;}.cls-12{fill:#98b9ff;}.cls-13{fill:#fff;}.cls-14{fill:#4fb2b2;}.cls-15{fill:#343534;}</style></defs><path class="cls-1" d="M196.08,96.87l1,7.21" transform="translate(0 -0.01)"/><path class="cls-2" d="M197.13,104.08l-2.48-1.72" transform="translate(0 -0.01)"/><path class="cls-3" d="M194.65,102.36c-1.22-2.46-3.13-2.28-5.46-2.26" transform="translate(0 -0.01)"/><path class="cls-4" d="M189.19,100.1,181,35.1a1.08,1.08,0,0,0-.92-.94,30.24,30.24,0,0,0-9.91.2" transform="translate(0 -0.01)"/><path class="cls-2" d="M170.18,34.37Q167.12,21.44,155,18.46C140.31,14.81,123.87,18,118.43,34" transform="translate(0 -0.01)"/><path class="cls-4" d="M118.43,34l-69.36.24a1.68,1.68,0,0,0-1.66,1.72,1.09,1.09,0,0,0,0,.18,2.06,2.06,0,0,0,.76,1.45c.32.26.39.78.19,1.55" transform="translate(0 -0.01)"/><path class="cls-2" d="M48.37,39.12l-6.53.22a.52.52,0,0,1-.6-.44.2.2,0,0,1,0-.07c-.84-6.13-4.45-19,2-22.5,4-2.16,13.85-1.19,18.93-1.18a1.27,1.27,0,0,0,.82-.28,1,1,0,0,1,.66-.31q15.24.51,30.5.55a1.32,1.32,0,0,0,.88-.27.33.33,0,0,0,.06-.46h0a.3.3,0,0,0-.26-.12Q79.18,14,63.39,14.07c-5.7,0-15.4-1.38-20.55.73" transform="translate(0 -0.01)"/><path class="cls-1" d="M42.84,14.8C36.52,13.61,30.33,17.9,31,24.6q.39,4.08,2,16.81" transform="translate(0 -0.01)"/><path class="cls-2" d="M33,41.41C4,52.28-.26,87.91,24.89,106.06" transform="translate(0 -0.01)"/><path class="cls-4" d="M24.89,106.06l-5.82,7.33" transform="translate(0 -0.01)"/><path class="cls-2" d="M19.07,113.39c-13.15-7.6-9.92,10.62-7.76,16" transform="translate(0 -0.01)"/><path class="cls-4" d="M11.31,129.39q-2.16-.27-2.58.78C-3.27,160-1.7,192,16.27,219.57q.29.45.12.66a1.41,1.41,0,0,1-.81.32" transform="translate(0 -0.01)"/><path class="cls-3" d="M15.58,220.55A3.52,3.52,0,0,0,14,223.74a.86.86,0,0,0,.5.8l2.2,1.13a1.88,1.88,0,0,1,.8,2.54,1.94,1.94,0,0,1-1,.87l-2.19.87a.58.58,0,0,0-.43.7.69.69,0,0,0,0,.13l1.07,3a.76.76,0,0,0,1,.46l0,0h0c2-.83,3.28-.33,3.92,1.5a1,1,0,0,1-.12.88l-1.5,2.24a.62.62,0,0,0,.07.87h0l1.87,1.91a.74.74,0,0,0,1,.11l2.07-1.36a1.82,1.82,0,0,1,2.51.5,1.89,1.89,0,0,1,.3,1v2a3.15,3.15,0,0,0,2,2.89,1.56,1.56,0,0,0,2-.84,1.53,1.53,0,0,0,.12-.67,3,3,0,0,1,1.77-2.58,1.75,1.75,0,0,1,2.38.69v0h0l1,1.83a.63.63,0,0,0,.66.35l2.68-.3" transform="translate(0 -0.01)"/><path class="cls-4" d="M38.84,245.32c.22.1.34.45.35,1a1,1,0,0,0,.4.79L61.2,263.53" transform="translate(0 -0.01)"/><path class="cls-1" d="M61.2,263.58c.57,5.33.82,12.27,3.62,16.35q3.86,5.63,11.38,4.31" transform="translate(0 -0.01)"/><path class="cls-2" d="M76.2,284.24a26.79,26.79,0,0,0,7.23,1.06q5.58.13,11.18.08a.56.56,0,0,0,.53-.39.69.69,0,0,0,0-.35.6.6,0,0,0-.6-.49c-10.76,0-22.14,2.56-23.86-12.06q-2.16-18.33-5-36.53" transform="translate(0 -0.01)"/><path class="cls-1" d="M65.68,235.56,61.5,204.14" transform="translate(0 -0.01)"/><path class="cls-2" d="M61.5,204.14a25.46,25.46,0,0,0,9,4.22" transform="translate(0 -0.01)"/><path class="cls-4" d="M70.46,208.36a11.4,11.4,0,0,0-.55,5q3.93,30.26,7.62,60.61c.44,3.57,2.46,3.86,5.55,3.36" transform="translate(0 -0.01)"/><path class="cls-2" d="M83.08,277.38q63.09,0,126.09-.19c1.49,0,2.15-.85,2-2.54a156.09,156.09,0,0,0-4.33-24" transform="translate(0 -0.01)"/><path class="cls-4" d="M206.84,250.66c.48-1.23.93-1.63.77-3q-4.73-41.59-10.53-83a2.55,2.55,0,0,0-.31-.89l-1.09-1.9" transform="translate(0 -0.01)"/><path class="cls-3" d="M195.68,161.87a8,8,0,0,1-.16-4.07" transform="translate(0 -0.01)"/><path class="cls-2" d="M195.52,157.8l9.37,5.2" transform="translate(0 -0.01)"/><path class="cls-1" d="M204.89,163,209,197.12" transform="translate(0 -0.01)"/><path class="cls-4" d="M209,197.12l7,55.76" transform="translate(0 -0.01)"/><path class="cls-2" d="M216,252.88c-.5.33-.68,1-.55,2q.9,7.59,1.91,15.2c1.1,8.31.35,14-9.44,14q-19.47.07-38.54,0a.54.54,0,0,0-.54.54h0a.54.54,0,0,0,.26.46,1.57,1.57,0,0,0,.84.21q18,.06,36.08,0c17,0,13.06-10.75,11.66-22.79" transform="translate(0 -0.01)"/><path class="cls-4" d="M217.66,262.6q6.43-1.37,9.16-6.33" transform="translate(0 -0.01)"/><path class="cls-2" d="M226.84,256.27c4.23,3.75,9.19,4.39,14.17,1.5q8.82-5.1,4.48-16.25" transform="translate(0 -0.01)"/><path class="cls-4" d="M245.47,241.52a48.11,48.11,0,0,0,8.41-9.6" transform="translate(0 -0.01)"/><path class="cls-2" d="M253.84,231.92c13.9,7.21,29.94-2.9,28.47-18.75a19,19,0,0,0-8-13.94" transform="translate(0 -0.01)"/><path class="cls-4" d="M274.31,199.23q19.06-44.56,6.1-91.57A158.62,158.62,0,0,0,271.1,82q-1-2.16-3.78-.82" transform="translate(0 -0.01)"/><path class="cls-2" d="M267.32,81.15l-.07-.8a.46.46,0,0,1,.32-.57h.16c15.66-1.17,13.44-9.83,10.92-21.36q-1.47-6.64-7.48-6.78c-1.07,0-2.36.66-3.58.74a.53.53,0,0,1-.56-.49.38.38,0,0,1,0-.15c1.07-4.46,1.44-11.8-3-13.68-3.45-1.44-4.84,1.33-4.5,4.4a20.31,20.31,0,0,1-4.25,14.77" transform="translate(0 -0.01)"/><path class="cls-4" d="M255.25,57.22a60.92,60.92,0,0,0-11.71-12.91" transform="translate(0 -0.01)"/><path class="cls-2" d="M243.54,44.31c8.62-19.45-14.92-36.56-30.78-22.13" transform="translate(0 -0.01)"/><path class="cls-4" d="M212.76,22.18,212.64,21a.92.92,0,0,0-.48-.75C192.34,8.88,167.56.66,144.58,1c-12.34.2-28.39,3.72-37.28,12.6a.44.44,0,0,0,0,.62h0a.47.47,0,0,0,.33.14q33,0,66.23.11c11.1,0,12.79,6.67,14,16.59Q192,64,196.07,96.87" transform="translate(0 -0.01)"/><path class="cls-5" d="M212.76,22.18C192.26,43.73,228.64,71,243.54,44.31" transform="translate(0 -0.01)"/><path class="cls-5" d="M255.25,57.22a21.29,21.29,0,0,0-2.08,9.18,89,89,0,0,1-5.07,32.3" transform="translate(0 -0.01)"/><path class="cls-6" d="M248.1,98.66l-6.73-3.77a.62.62,0,0,1-.34-.6l.34-11.38a.83.83,0,0,0-.63-.84l-10-2.74a.55.55,0,0,0-.65.29l-5.25,10.29a.86.86,0,0,1-.81.49h-6.75a.93.93,0,0,1-.81-.48L211,80.09a.86.86,0,0,0-1.09-.46l-9.48,2.61a.88.88,0,0,0-.73,1l.42,11a.89.89,0,0,1-.46.8l-3.57,1.89" transform="translate(0 -0.01)"/><path class="cls-5" d="M267.32,81.15A176,176,0,0,1,265,118" transform="translate(0 -0.01)"/><path class="cls-7" d="M265,118c-3.49,20-12.25,39.1-32.42,46.45" transform="translate(0 -0.01)"/><path class="cls-2" d="M232.62,164.49a57.74,57.74,0,0,1-22.72.35" transform="translate(0 -0.01)"/><path class="cls-7" d="M209.9,164.84l-5-1.84" transform="translate(0 -0.01)"/><path class="cls-8" d="M195.52,157.8a1.47,1.47,0,0,1-.39-1.89" transform="translate(0 -0.01)"/><path class="cls-2" d="M195.13,155.91c21.13,15.43,49.18,10.2,60.95-13.92,9.24-19,11.06-42,9.87-62.77a.58.58,0,0,1,.51-.63h0c13.15-1.16,14.34-5.21,11.6-17.32-1.13-5-1.76-8.76-7.6-8.27a7.12,7.12,0,0,0-6.63,4.84,1.33,1.33,0,0,0,0,1,31.92,31.92,0,0,1,1.85,10.38c0,3.47,1.77,5.12,4.87,6a.28.28,0,0,1,.24.31.13.13,0,0,1,0,.06,1.09,1.09,0,0,1-.1.25.56.56,0,0,1-.64.28c-4.08-.85-5.58-3.22-5.6-7.42,0-4.82-3.85-11.07.42-14.5a1.55,1.55,0,0,0,.53-.75c1.15-3.4,2.83-14.79-3.73-14.24a.79.79,0,0,0-.71.57c-1,3.29.53,6.31-.56,10.17-1.3,4.57-5,8.55-5.79,12.74a43.08,43.08,0,0,0-.25,7.36c.33,18.41-6.7,37.7-17,52.79-3.53,5.15-11.66,14.75-17.84,10.06-9.89-7.53-15.27-20.63-24.67-29" transform="translate(0 -0.01)"/><path class="cls-8" d="M194.84,103.8c-.76-1-.81-1.5-.17-1.44" transform="translate(0 -0.01)"/><path class="cls-7" d="M197.13,104.08l7.53,8.94" transform="translate(0 -0.01)"/><path class="cls-5" d="M204.66,113a114.44,114.44,0,0,0,14.18,17.69c4.19,4.27,8.32,1.54,11.82-2.05a56,56,0,0,0,9.75-13.08" transform="translate(0 -0.01)"/><path class="cls-7" d="M240.42,115.58a98.36,98.36,0,0,0,7.68-16.92" transform="translate(0 -0.01)"/><path class="cls-6" d="M240.42,115.58q-13.17-9.33-28.1-6" transform="translate(0 -0.01)"/><path class="cls-1" d="M212.32,109.66c-.91-3.77-5.93-2.79-4.55,2" transform="translate(0 -0.01)"/><path class="cls-6" d="M207.77,111.66l-3.11,1.41" transform="translate(0 -0.01)"/><path class="cls-9" d="M195.68,161.87a242.72,242.72,0,0,0,1.43,28.53,16.26,16.26,0,0,1-5.2,14.44.6.6,0,0,0-.21.52.36.36,0,0,1-.27.37" transform="translate(0 -0.01)"/><path class="cls-8" d="M191.43,205.73c.31-.13.2-.14-.32,0a.6.6,0,0,0-.28.13c-9.34,6.56-22.33,7.44-33.34,6.6-17-1.3-34.25-1.2-51.24-2.85" transform="translate(0 -0.01)"/><path class="cls-9" d="M106.25,209.58c-6.17-1.56-10-4.36-9.76-10.69q.44-11.12.44-16.57" transform="translate(0 -0.01)"/><path class="cls-3" d="M97.67,175.81q1.23-14.38,2.21-28.95a37,37,0,0,0-.46-8.86q-2.36-13.26-5.94-26.54" transform="translate(0 -0.01)"/><path class="cls-10" d="M93.3,109.55c0-2.46-1.35-5-4-7.79" transform="translate(0 -0.01)"/><path class="cls-3" d="M195.13,155.91c-1.27-16.8-.72-33.87-1-50.74a1.21,1.21,0,0,1,.31-.87l.41-.5" transform="translate(0 -0.01)"/><path class="cls-5" d="M274.31,199.23c-23.13-13.4-42.57,17.93-20.43,32.69" transform="translate(0 -0.01)"/><path class="cls-5" d="M245.47,241.52c-11.07-15.24-30.84,2.52-18.65,14.75" transform="translate(0 -0.01)"/><path class="cls-5" d="M217.66,262.6,216,252.88" transform="translate(0 -0.01)"/><path class="cls-6" d="M209,197.12l2.33-.62a1.23,1.23,0,0,0,.79-.64l4.71-9.37a.89.89,0,0,1,.86-.54l7-.15a.6.6,0,0,1,.59.35l5.13,9.76a1.14,1.14,0,0,0,1.27.57l9.72-2.45a.68.68,0,0,0,.5-.67l-.42-11.44a.63.63,0,0,1,.34-.63l6.35-3.71a.74.74,0,0,1,.87,0l9.19,5.95a.77.77,0,0,0,.95-.1l7.52-7.27a.64.64,0,0,0,.1-.87l-6.26-9.9a.89.89,0,0,1,0-.94l3.38-5.43a1.49,1.49,0,0,1,1.34-.72l10.75.3a.73.73,0,0,0,.72-.53l2.77-9.92a.71.71,0,0,0-.37-.88q-4.38-2.36-8.87-4.48c-2.86-1.35-1.76-6.35-1.63-8.45a1.08,1.08,0,0,1,.59-.9l9.39-4.78a1.12,1.12,0,0,0,.56-1.23l-2.26-9.4a1.19,1.19,0,0,0-1.07-.91A32.62,32.62,0,0,0,265,118" transform="translate(0 -0.01)"/><path class="cls-1" d="M209.9,164.84a25.25,25.25,0,0,0,22.72-.35" transform="translate(0 -0.01)"/><path class="cls-4" d="M212.32,109.66q0,2.5-2.4,2.46a5.51,5.51,0,0,1-2.15-.47" transform="translate(0 -0.01)"/><path class="cls-5" d="M206.84,250.66a387.33,387.33,0,0,0-15.37-44.92" transform="translate(0 -0.01)"/><path class="cls-5" d="M106.25,209.58c-12,22.7-17.39,41.73-23.17,67.8" transform="translate(0 -0.01)"/><path class="cls-5" d="M170.18,34.37q.9,10.08,1.43,20.23c.34,6.73,4.27,11.91,5.76,17.11,2.89,10.09-3.3,19.32-10.53,26.34-.3.28-.27.52.11.7a5.24,5.24,0,0,0,2.17.41" transform="translate(0 -0.01)"/><path class="cls-8" d="M169.12,99.16q-3.83,13.65-17.22,17c-14.59,3.65-24.77-3.1-31.44-15.79a.77.77,0,0,0-.79-.44l-30.39,1.82" transform="translate(0 -0.01)"/><path class="cls-7" d="M89.28,101.76c-5.4,4-4.93,18.51-4.48,24.42a.27.27,0,0,0,.28.26h0a.31.31,0,0,0,.27-.21,50.29,50.29,0,0,1,7.94-16.68" transform="translate(0 -0.01)"/><path class="cls-8" d="M93.3,109.55c1.2,1.66,1.26,2.29.18,1.91" transform="translate(0 -0.01)"/><path class="cls-2" d="M93.48,111.46a14.25,14.25,0,0,0-3.14,4.88c-8,19.43-12.86,40.24-18,60.87-.31,1.22-.85,1.33-1.61.33a355.79,355.79,0,0,1-21.89-32.27c-3-5-3.22-10.82-7.17-15.28A34.38,34.38,0,0,0,26,119.89a.55.55,0,0,0-.7.33v0a.11.11,0,0,0,0,.08c-.7,3.72,3.6,5.23,6.14,6.94a1.55,1.55,0,0,1,.43,2.16h0a1.68,1.68,0,0,1-.24.29,4.89,4.89,0,0,1-4.92,1.11c-5-1.41-6.13-4.78-5.61-9.52.6-5.47-3.48-8.72-8.71-8.09a1,1,0,0,0-.8.57c-3.56,7.44,1.11,18,6.61,22.51,4.36,3.61,12.31,4.45,16.25,6.6,4.31,2.35,6.26,7.71,7.11,13,2.72,16.87,10.27,50.34,32.44,51.64,12.5.73,20.79-21.9,23.69-31.72" transform="translate(0 -0.01)"/><path class="cls-8" d="M97.67,175.81l-.74,6.51" transform="translate(0 -0.01)"/><path class="cls-5" d="M96.93,182.32c-4.12,10.25-12,30-26.47,26" transform="translate(0 -0.01)"/><path class="cls-7" d="M61.5,204.14a33.71,33.71,0,0,1-7-7.06" transform="translate(0 -0.01)"/><path class="cls-5" d="M54.52,197.08l-4-6.53" transform="translate(0 -0.01)"/><path class="cls-7" d="M50.54,190.55l-3.64-8.34" transform="translate(0 -0.01)"/><path class="cls-5" d="M46.9,182.21a166.55,166.55,0,0,1-6.13-23.67" transform="translate(0 -0.01)"/><path class="cls-7" d="M40.77,158.54l-2.18-8.64" transform="translate(0 -0.01)"/><path class="cls-5" d="M38.59,149.9c-3.8-9.32-14.19-7.12-21.15-12.57a20.42,20.42,0,0,1-6.13-7.94" transform="translate(0 -0.01)"/><path class="cls-5" d="M19.07,113.39c6.68,5.53-1.34,15.78,10.08,16.66a1.27,1.27,0,0,0,1.36-1.18,1.26,1.26,0,0,0-.53-1.12c-3.29-2.31-7.2-3.35-5.79-8.45a.86.86,0,0,1,.82-.66c6.16-.29,15.81,8.16,19.56,12.63" transform="translate(0 -0.01)"/><path class="cls-7" d="M44.57,131.27q2.07,4.92,4.1,11.13,1.14,3.48,6,9.32" transform="translate(0 -0.01)"/><path class="cls-2" d="M54.69,151.72,63.89,166" transform="translate(0 -0.01)"/><path class="cls-5" d="M63.89,166l6.93,9.59c.27.38.47.34.6-.11l9.86-37a.77.77,0,0,0-.23-.77c-13.7-12.33-18.47-28.08,3.19-36.52,7.89-3.07,18.43-6.55,19.39-15.76.81-7.73-4.52-13.7,3-19.84,5.34-4.34,10.76-6.84,10.58-15.22A71.77,71.77,0,0,1,118.42,34" transform="translate(0 -0.01)"/><path class="cls-9" d="M189.19,100.1l-20.07-.94" transform="translate(0 -0.01)"/><path class="cls-6" d="M38.59,149.9l-4.52-.55a.9.9,0,0,1-.75-.66l-.72-2.95a1,1,0,0,0-.8-.78,6.41,6.41,0,0,0-5.47,1.13,1,1,0,0,0-.41.81v4.21a1.18,1.18,0,0,1-.31.8,4.6,4.6,0,0,1-3.19,1.51,1,1,0,0,1-.72-.27A7.58,7.58,0,0,0,18,151.06a.87.87,0,0,0-.88.29l-2.62,3a.75.75,0,0,0-.06.91l2,3.11a1.58,1.58,0,0,1,.24.85,4.49,4.49,0,0,1-1.77,3.48.9.9,0,0,1-.5.16l-4.26-.16a.91.91,0,0,0-1,.74l-1,3.8a.89.89,0,0,0,.44,1l3.84,2A1.24,1.24,0,0,1,13,171a4.53,4.53,0,0,1-.17,3.45,1.38,1.38,0,0,1-.61.63l-3.5,1.86a1,1,0,0,0-.57,1,7.48,7.48,0,0,0,1.67,4.43.92.92,0,0,0,.76.32l4-.37a.94.94,0,0,1,1,.51l1.46,2.59a.8.8,0,0,1,0,.82l-2.62,3.91a.74.74,0,0,0,.1,1l3.16,3.17a.85.85,0,0,0,1.06.1l3.88-2.7a1,1,0,0,1,1.1,0l2.35,1.66a.69.69,0,0,1,.29.59l-.27,4.55a.8.8,0,0,0,.65.9l4,1.09a1,1,0,0,0,1.18-.51l2.24-4.25a.67.67,0,0,1,.68-.36l3,.31a.86.86,0,0,1,.7.46l2.29,4a.76.76,0,0,0,.84.33l4.09-1.24a.55.55,0,0,0,.43-.64l-.38-4.17a1.11,1.11,0,0,1,.3-.93,10.6,10.6,0,0,1,4.5-2.94" transform="translate(0 -0.01)"/><path class="cls-6" d="M54.52,197.08c-1.17.09-1.7.53-1.6,1.32q4.26,33,8.28,65.18" transform="translate(0 -0.01)"/><path class="cls-9" d="M38.84,245.32a4.87,4.87,0,0,0,.55-3.54.91.91,0,0,1,.43-1,2.54,2.54,0,0,1,3.58.08,2.49,2.49,0,0,1,.42.6.75.75,0,0,0,1,.2h0l2.22-1.83a.74.74,0,0,0,.21-.86c-.76-1.78-3-3-.66-4.92a1.4,1.4,0,0,1,1-.35l2.39.09a.71.71,0,0,0,.81-.61.17.17,0,0,0,0-.07l.37-2.54a.74.74,0,0,0-.43-.83c-1-.51-2.34-.89-2.8-1.89-.86-1.89,1.54-2.88,3.18-3.63a.52.52,0,0,0,.32-.66l0-.05L50.52,221a.75.75,0,0,0-.77-.54H47.1a1.2,1.2,0,0,1-1-.58q-1.34-2.28,1-3.84a.52.52,0,0,0,.25-.69.49.49,0,0,0-.14-.18l-2-2.28a.68.68,0,0,0-.85-.15l-3,1.58a.94.94,0,0,1-1.09-.11,2.82,2.82,0,0,1-.9-3.53.94.94,0,0,0-.16-.91c-1.41-1.61-4.19-1.69-4.63,1a.9.9,0,0,1-.63.71l-1.87.53a.75.75,0,0,1-.84-.34l-1.56-2.68a.77.77,0,0,0-.95-.4l-2.18.54a.9.9,0,0,0-.68.87v3.24a.91.91,0,0,1-.7.94,3.14,3.14,0,0,1-3.77-1.36.59.59,0,0,0-.82-.15h0l-2.33,2.09a.61.61,0,0,0,0,.86l0,0h0a5.81,5.81,0,0,1,1.52,3.71.77.77,0,0,1-.42.7,5.82,5.82,0,0,1-3.72.47" transform="translate(0 -0.01)"/><path class="cls-6" d="M42.62,111.66a96.89,96.89,0,0,0,2,19.66" transform="translate(0 -0.01)"/><path class="cls-7" d="M65.68,235.56c-.58.14-.85.42-.79.85q2.31,18.51,4.76,37c.7,5.24,2.62,7.74,6.55,10.8" transform="translate(0 -0.01)"/><path class="cls-6" d="M40.77,158.54q-12.2-1.31-16.71,6.78c-4.73,8.43-.5,18.35,8.6,20.69q6.95,1.78,14.24-3.8" transform="translate(0 -0.01)"/><path class="cls-4" d="M63.89,166a3,3,0,0,0,0-2.67,15.34,15.34,0,0,1-.65-2.48Q59.82,135,57,109.39" transform="translate(0 -0.01)"/><path class="cls-1" d="M54.69,151.72l-5-40.55" transform="translate(0 -0.01)"/><path class="cls-5" d="M48.37,39.12C88,44.56,92.37,93.69,57,109.39" transform="translate(0 -0.01)"/><path class="cls-2" d="M57,109.39l-7.32,1.78" transform="translate(0 -0.01)"/><path class="cls-7" d="M49.7,111.17l-7.08.44" transform="translate(0 -0.01)"/><path class="cls-5" d="M42.62,111.66a39.46,39.46,0,0,1-17.73-5.55" transform="translate(0 -0.01)"/><path class="cls-7" d="M33,41.41l6.58-1.82a.62.62,0,0,0,.44-.66q-1-7.3-1.88-14.54Q37.5,19,42.87,14.8" transform="translate(0 -0.01)"/><path class="cls-2" d="M25,12.66c.3,0,.53-.81.52-1.81s-.28-1.81-.58-1.8h0c-.31,0-.54.82-.52,1.81s.27,1.81.58,1.8h0" transform="translate(0 -0.01)"/><path class="cls-2" d="M23.76,14c0-.38-.87-.67-1.91-.64s-1.88.36-1.87.75h0c0,.38.86.67,1.91.64s1.88-.36,1.87-.75h0" transform="translate(0 -0.01)"/><path class="cls-2" d="M30,14c0-.38-.85-.66-1.86-.63s-1.83.36-1.82.74.84.66,1.86.63S30,14.33,30,14" transform="translate(0 -0.01)"/><path class="cls-2" d="M25,19c.3,0,.52-.89.5-2s-.29-2-.59-1.94-.52.89-.49,2,.29,2,.58,1.94" transform="translate(0 -0.01)"/><path class="cls-4" d="M115.54,26.51a4,4,0,0,0-5.47-5.85h0a4,4,0,1,0,5.47,5.85h0" transform="translate(0 -0.01)"/><path class="cls-2" d="M161.18,284.76a.61.61,0,0,0-.61-.61h-44a.61.61,0,0,0-.61.61h0a.61.61,0,0,0,.61.61h44a.63.63,0,0,0,.61-.61h0" transform="translate(0 -0.01)"/><path class="cls-7" d="M79.94,74.6a34.18,34.18,0,0,0-68.36,0h0a34.18,34.18,0,0,0,34.18,34.18h0A34.2,34.2,0,0,0,79.94,74.6" transform="translate(0 -0.01)"/><path class="cls-2" d="M244.07,36.08a18,18,0,1,0-36,0h0a18,18,0,0,0,18,18h0a18,18,0,0,0,18-18" transform="translate(0 -0.01)"/><path class="cls-8" d="M163.23,42q-.9-9.6-7.55-14c-11.41-7.63-30.14-1-29.39,14.65,0,.15.11.25.33.29a.42.42,0,0,0,.46-.32h0c1-12.55,11-19,22.79-15.92q11.58,3,12.43,17.49a.3.3,0,0,0,.32.28h0a.32.32,0,0,0,.24-.14,3.71,3.71,0,0,0,.35-2.25" transform="translate(0 -0.01)"/><path class="cls-8" d="M135.14,72.76q-4.3-1.08-5.82-5.89a.3.3,0,0,0-.34-.23h-.33c-.27,0-.37.1-.31.36q1.32,6.1,8.26,7.37" transform="translate(0 -0.01)"/><path class="cls-2" d="M136.6,74.37c7.3,10.36,17.54,2,20.81-6.14,2.05-5.12,1.46-12.69,2.43-17.9a39.19,39.19,0,0,0,.44-11.08.46.46,0,0,0-.49-.41.43.43,0,0,0-.24.1,29.15,29.15,0,0,1-14.71,6.51c-4,.56-9.41-.54-14.42.5a.53.53,0,0,0-.49.58v0q.06,12.88,1.29,18.5c.27,1.26,1.56,3.82,3.89,7.69" transform="translate(0 -0.01)"/><path class="cls-3" d="M136.6,74.37a8.47,8.47,0,0,1,2.61.69c1.36.61,2.32,2.75,4.49,1.75a2.07,2.07,0,0,0,1-2.75,2,2,0,0,0-.29-.46c-1.16-1.38-2.51-1.43-4.07-.13a.94.94,0,0,1-.79.19l-4.43-.9" transform="translate(0 -0.01)"/><path class="cls-7" d="M129.84,64.42l-1.1-14.29a.69.69,0,0,0-.74-.64h-.16a4.4,4.4,0,0,0-4,4.78v0h0l.51,6.68A4.42,4.42,0,0,0,129,65.16h.09a.71.71,0,0,0,.63-.74" transform="translate(0 -0.01)"/><path class="cls-7" d="M160.93,49.59,159.61,65a.29.29,0,0,0,.25.3H160a4.85,4.85,0,0,0,5.17-4.5h0l.53-6.18a4.84,4.84,0,0,0-4.31-5.32h-.16a.27.27,0,0,0-.3.24h0" transform="translate(0 -0.01)"/><path class="cls-2" d="M137,77.66l-2.61,20.19a.71.71,0,0,1-.65.65l-11.31,1.64c-.38,0-.48.24-.31.58,9.38,19.47,36.15,20.77,45.2.74.4-.9.11-1.41-.86-1.55l-10-1.41a.64.64,0,0,1-.6-.63l-1.78-21.5a.33.33,0,0,0-.34-.29.31.31,0,0,0-.2.11q-7.32,7.8-15.81,1.17-.63-.48-.72.3" transform="translate(0 -0.01)"/><path class="cls-2" d="M223.84,32.59a5,5,0,0,0,.34-6.79c-1.06-1.52-2.27-1.66-3.75-.6C210.87,32,229.11,55,234.61,44.05a.71.71,0,0,0-.11-.86l-3.06-3.48a1,1,0,0,0-1-.36l-2.48.34a1.08,1.08,0,0,1-.88-.26,10.24,10.24,0,0,1-3.51-5.93,1,1,0,0,1,.24-.91" transform="translate(0 -0.01)"/><path class="cls-7" d="M220.78,26.16c-4.63,6.78,2.33,19.06,10.29,19.6A1.8,1.8,0,0,0,233,44.07a1.77,1.77,0,0,0-.19-.93c-1.07-2.08-2.6-2.82-4.61-2.22a1.45,1.45,0,0,1-1.15-.16c-2.78-1.82-6.91-7.59-3-10.22a.75.75,0,0,0,.28-.86l-1.16-3.22a1.37,1.37,0,0,0-1.74-.81,1.34,1.34,0,0,0-.64.51" transform="translate(0 -0.01)"/><path class="cls-1" d="M21.64,57.85c-.45.06-.86.66-1.22,1.82" transform="translate(0 -0.01)"/><path class="cls-7" d="M20.42,59.66a3.25,3.25,0,0,0-1.17,1.13C9.71,81.34,23.51,105.51,46.9,104" transform="translate(0 -0.01)"/><path class="cls-1" d="M46.9,104a31.31,31.31,0,0,0,23-12.8" transform="translate(0 -0.01)"/><path class="cls-7" d="M69.94,91.18A12.44,12.44,0,0,0,74.08,82" transform="translate(0 -0.01)"/><path class="cls-1" d="M74.08,82A29.41,29.41,0,0,0,72.72,63.1" transform="translate(0 -0.01)"/><path class="cls-7" d="M72.72,63.1C64.37,40.87,36,39.29,21.81,56.79a1.69,1.69,0,0,0-.17,1.06" transform="translate(0 -0.01)"/><path class="cls-2" d="M72.72,63.1A37.8,37.8,0,0,0,62.2,51.32c-12.8-9.14-28.94-6.13-39.06,5.8a1.9,1.9,0,0,1-1.5.73" transform="translate(0 -0.01)"/><path class="cls-2" d="M74.08,82a30.31,30.31,0,0,0-4.14,9.16" transform="translate(0 -0.01)"/><path class="cls-2" d="M46.9,104a42.34,42.34,0,0,1-14-4.08C18,92.34,13.71,75.9,20.67,60.62a.91.91,0,0,0-.22-1" transform="translate(0 -0.01)"/><path class="cls-3" d="M31.69,82.2a.6.6,0,0,1-.58-.59.56.56,0,0,1,.26-.47c4.8-3.08,15.3-8.2,9.75-15.63-2.95-4-11.35-3.25-15.84-1.74a.56.56,0,0,0-.42.67v0l.61,3.08a.56.56,0,0,0,.65.45h.08c2.29-.68,9-1.78,10.53.67,1.31,2-.28,3.55-2.09,4.65-5.48,3.35-11.32,6.26-9.75,12.9a.51.51,0,0,0,.54.43H42.17a.44.44,0,0,0,.5-.37.29.29,0,0,0,0-.13v-3.5a.58.58,0,0,0-.56-.58h0l-10.39.16" transform="translate(0 -0.01)"/><path class="cls-3" d="M63.67,76.5V63.88a.76.76,0,0,0-.53-.73c-3.25-1.07-5.27-.41-7.45,2.34-3.12,3.93-10.4,10.37-9.08,15.64a.55.55,0,0,0,.58.46L58,81.67a.64.64,0,0,1,.64.64v3.84a.44.44,0,0,0,.37.5h4.12a.44.44,0,0,0,.5-.37.29.29,0,0,0,0-.13v-4a.67.67,0,0,1,.65-.67h.06l2.09.17a.59.59,0,0,0,.62-.54V81l-.23-3.37a.53.53,0,0,0-.49-.57H66.2l-1.75.11a.74.74,0,0,1-.78-.69h0" transform="translate(0 -0.01)"/><path class="cls-3" d="M58.62,69.89a.42.42,0,0,0-.45-.39h0a.41.41,0,0,0-.29.15L52,76.54a.41.41,0,0,0,0,.59.39.39,0,0,0,.31.1l6.37-.51a.43.43,0,0,0,.39-.45h0l-.45-6.38" transform="translate(0 -0.01)"/><path class="cls-2" d="M281.35,215.15a18,18,0,1,0-18,18,18,18,0,0,0,18-18" transform="translate(0 -0.01)"/><path class="cls-2" d="M276.08,216.32a2.45,2.45,0,0,0-.76-3.39h0l-15.06-9.49a2.49,2.49,0,0,0-3.41.78h0l-6.51,10.34a2.45,2.45,0,0,0,.76,3.39h0l15.07,9.49a2.46,2.46,0,0,0,3.39-.77h0l6.51-10.34" transform="translate(0 -0.01)"/><path class="cls-7" d="M275,215.81a1.37,1.37,0,0,0-.43-1.89h0l-14.91-9.39a1.38,1.38,0,0,0-1.89.43L251.4,215.1a1.37,1.37,0,0,0,.43,1.89h0l14.91,9.39a1.37,1.37,0,0,0,1.89-.43h0L275,215.81" transform="translate(0 -0.01)"/><path class="cls-7" d="M263.11,215l-3.3-6.85a.42.42,0,0,0-.54-.22l0,0h0a.58.58,0,0,0-.26.35.86.86,0,0,0,.1.63q1.59,3.54,3.24,7.15a.81.81,0,0,0,.74.49c2.71.08,5.41.06,8.09-.08a.81.81,0,0,0,.74-.48.49.49,0,0,0-.22-.66h0a.37.37,0,0,0-.23-.05l-7.48.16a.82.82,0,0,1-.8-.49" transform="translate(0 -0.01)"/><path class="cls-9" d="M42,227.22a9.31,9.31,0,1,0-18.62,0h0a9.31,9.31,0,0,0,9.31,9.31h0A9.31,9.31,0,0,0,42,227.22" transform="translate(0 -0.01)"/><path class="cls-2" d="M245.76,247.59A10.73,10.73,0,1,0,235,258.32a10.72,10.72,0,0,0,10.73-10.73h0" transform="translate(0 -0.01)"/><path class="cls-2" d="M236.11,246.88a.41.41,0,0,1-.36-.37l-.3-5a.38.38,0,0,0-.39-.39.39.39,0,0,0-.39.39h0l-.33,5a.41.41,0,0,1-.37.36l-5,.3a.38.38,0,0,0-.4.36v0a.4.4,0,0,0,.39.4h0l5,.33a.38.38,0,0,1,.36.37l.3,5a.38.38,0,0,0,.37.39h0a.4.4,0,0,0,.4-.38l.33-5a.37.37,0,0,1,.37-.36l5-.3a.38.38,0,0,0,.39-.39h0a.38.38,0,0,0-.37-.39h0l-5-.33" transform="translate(0 -0.01)"/><path class="cls-11" d="M212.76,22.18C192.26,43.73,228.64,71,243.54,44.31a60.92,60.92,0,0,1,11.71,12.91,21.29,21.29,0,0,0-2.08,9.18,89,89,0,0,1-5.07,32.3l-6.73-3.77a.62.62,0,0,1-.34-.6L241.37,83a.83.83,0,0,0-.63-.84l-10-2.74a.55.55,0,0,0-.65.29l-5.25,10.25a.86.86,0,0,1-.81.49h-6.75a.93.93,0,0,1-.81-.48L211,80.09a.86.86,0,0,0-1.09-.46l-9.48,2.61a.88.88,0,0,0-.73,1l.42,11a.89.89,0,0,1-.46.8l-3.57,1.89Q192,64.08,187.88,31.15c-1.23-9.92-2.92-16.55-14-16.59q-33.24-.12-66.23-.11a.46.46,0,0,1-.46-.45.43.43,0,0,1,.14-.32c8.89-8.88,24.94-12.4,37.28-12.6,23-.37,47.76,7.86,67.58,19.26a.92.92,0,0,1,.48.75Z" transform="translate(0 -0.01)"/><ellipse cx="28.12" cy="14.01" rx="1.84" ry="0.69" transform="translate(-0.38 0.78) rotate(-1.6)"/><path d="M48.37,39.12C88,44.56,92.37,93.69,57,109.39l-7.32,1.78-7.08.44a39.46,39.46,0,0,1-17.73-5.55C-.26,87.91,4,52.28,33,41.41l6.58-1.82a.62.62,0,0,0,.44-.66q-1-7.3-1.88-14.54Q37.5,19,42.87,14.8c5.15-2.11,14.85-.69,20.55-.73q15.78-.09,31.42.18a.32.32,0,0,1,.33.31h0a.36.36,0,0,1-.12.27,1.32,1.32,0,0,1-.88.27q-15.26,0-30.5-.55a1,1,0,0,0-.66.31,1.27,1.27,0,0,1-.82.28c-5.08,0-15-1-18.93,1.18-6.48,3.52-2.87,16.37-2,22.5a.54.54,0,0,0,.54.52h.07ZM79.94,74.6a34.18,34.18,0,0,0-68.36,0h0a34.18,34.18,0,0,0,34.18,34.18h0A34.2,34.2,0,0,0,79.94,74.6Z" transform="translate(0 -0.01)"/><path class="cls-12" d="M42.84,14.8Q37.47,19,38.15,24.39,39,31.62,40,38.93a.62.62,0,0,1-.44.66L33,41.41Q31.36,28.69,31,24.6C30.36,17.9,36.55,13.66,42.84,14.8Z" transform="translate(0 -0.01)"/><path d="M243.54,44.31c-14.9,26.73-51.28-.58-30.78-22.13C228.62,7.75,252.16,24.86,243.54,44.31Zm.53-8.23a18,18,0,1,0-36,0h0a18,18,0,0,0,18,18h0A18,18,0,0,0,244.07,36.08Z" transform="translate(0 -0.01)"/><path d="M170.18,34.37q.9,10.08,1.43,20.23c.34,6.73,4.27,11.91,5.76,17.11,2.89,10.09-3.3,19.32-10.53,26.34-.3.28-.27.52.11.7a5.24,5.24,0,0,0,2.17.41q-3.83,13.65-17.22,17c-14.59,3.65-24.77-3.1-31.44-15.79a.77.77,0,0,0-.79-.44l-30.39,1.82c-5.4,4-4.93,18.51-4.48,24.42a.27.27,0,0,0,.28.26h0a.31.31,0,0,0,.27-.21,50.29,50.29,0,0,1,7.94-16.68c1.2,1.66,1.26,2.29.18,1.91a14.25,14.25,0,0,0-3.14,4.88c-8,19.43-12.86,40.24-18,60.87-.31,1.22-.85,1.33-1.61.33a357,357,0,0,1-21.89-32.26c-3-5-3.22-10.82-7.17-15.28A34.38,34.38,0,0,0,26,119.89a.55.55,0,0,0-.7.33v0a.11.11,0,0,0,0,.08c-.7,3.72,3.6,5.23,6.14,6.94a1.55,1.55,0,0,1,.43,2.16h0a1.68,1.68,0,0,1-.24.29,4.89,4.89,0,0,1-4.92,1.11c-5-1.41-6.13-4.78-5.61-9.52.6-5.47-3.48-8.72-8.71-8.09a1,1,0,0,0-.8.57c-3.56,7.44,1.11,18,6.61,22.51,4.36,3.61,12.31,4.45,16.25,6.6,4.31,2.35,6.26,7.71,7.11,13,2.72,16.87,10.27,50.34,32.44,51.64,12.5.73,20.79-21.9,23.69-31.72l-.74,6.51c-4.12,10.25-12,30-26.47,26a25.46,25.46,0,0,1-9-4.22,33.71,33.71,0,0,1-7-7.06l-4-6.53-3.64-8.34a166.55,166.55,0,0,1-6.13-23.67l-2.18-8.64c-3.8-9.32-14.19-7.12-21.15-12.57a20.42,20.42,0,0,1-6.13-7.94c-2.16-5.38-5.39-23.6,7.76-16,6.68,5.53-1.34,15.78,10.08,16.66a1.27,1.27,0,0,0,1.36-1.18,1.26,1.26,0,0,0-.53-1.12c-3.29-2.31-7.2-3.35-5.79-8.45a.86.86,0,0,1,.82-.66c6.16-.29,15.81,8.16,19.56,12.63q2.07,4.92,4.1,11.13,1.14,3.48,6,9.32L63.79,166l6.93,9.59c.27.38.47.34.6-.11l9.86-37a.77.77,0,0,0-.23-.77c-13.7-12.33-18.47-28.08,3.19-36.52,7.89-3.07,18.43-6.55,19.39-15.76.81-7.73-4.52-13.7,3-19.84,5.34-4.34,10.76-6.84,10.58-15.22a71.77,71.77,0,0,1,1.21-16.42C123.76,18,140.2,14.76,154.93,18.41Q167.13,21.46,170.18,34.37Zm-7,7.59q-.9-9.6-7.55-14c-11.41-7.63-30.14-1-29.39,14.65,0,.15.11.25.33.29a.42.42,0,0,0,.46-.32h0c1-12.55,11-19,22.79-15.92q11.58,3,12.43,17.49a.3.3,0,0,0,.32.28h0a.32.32,0,0,0,.24-.14,3.69,3.69,0,0,0,.36-2.33Zm-28.09,30.8q-4.3-1.08-5.82-5.89a.3.3,0,0,0-.34-.23h-.33c-.27,0-.37.1-.31.36q1.32,6.1,8.26,7.37c7.3,10.36,17.54,2,20.81-6.14,2.05-5.12,1.46-12.69,2.43-17.9a39.19,39.19,0,0,0,.44-11.08.46.46,0,0,0-.49-.41.43.43,0,0,0-.24.1,29.15,29.15,0,0,1-14.71,6.51c-4,.56-9.41-.54-14.42.5a.53.53,0,0,0-.49.58v0q.06,12.88,1.29,18.5Q131.65,67,135.14,72.76Zm-5.3-8.34-1.1-14.29a.69.69,0,0,0-.74-.64h-.16a4.4,4.4,0,0,0-4,4.78v0h0l.51,6.68A4.42,4.42,0,0,0,129,65.16h.09a.7.7,0,0,0,.74-.66ZM161,49.59,159.66,65a.29.29,0,0,0,.25.3h.14a4.85,4.85,0,0,0,5.17-4.5h0l.53-6.18a4.84,4.84,0,0,0-4.31-5.32h-.16a.27.27,0,0,0-.3.24h0ZM137,77.68l-2.61,20.19a.71.71,0,0,1-.65.65l-11.31,1.64c-.38,0-.48.24-.31.58,9.38,19.47,36.15,20.77,45.2.74.4-.9.11-1.41-.86-1.55l-10-1.41a.64.64,0,0,1-.6-.63l-1.78-21.5a.33.33,0,0,0-.34-.29.31.31,0,0,0-.2.11q-7.32,7.8-15.81,1.17c-.43-.32-.68-.23-.74.28Z" transform="translate(0 -0.01)"/><path class="cls-13" d="M244.07,36.08a18,18,0,0,1-36,0h0a18,18,0,0,1,18-18h0A18,18,0,0,1,244.07,36.08Zm-20.23-3.49a5,5,0,0,0,.34-6.79c-1.06-1.52-2.27-1.66-3.75-.6C210.87,32,229.11,55,234.61,44.05a.71.71,0,0,0-.11-.86l-3.06-3.48a1,1,0,0,0-1-.36l-2.48.34a1.08,1.08,0,0,1-.88-.26,10.24,10.24,0,0,1-3.51-5.93A1,1,0,0,1,223.84,32.59Z" transform="translate(0 -0.01)"/><ellipse class="cls-11" cx="112.81" cy="23.59" rx="3.45" ry="4" transform="translate(14.32 83.43) rotate(-43.1)"/><path d="M223.6,33.5a10.24,10.24,0,0,0,3.51,5.93,1.08,1.08,0,0,0,.88.26l2.48-.34a1,1,0,0,1,1,.36l3.06,3.48a.71.71,0,0,1,.11.86c-5.5,11-23.74-12-14.18-18.85,1.48-1.06,2.69-.92,3.75.6a5,5,0,0,1-.34,6.79A1,1,0,0,0,223.6,33.5Zm-2.82-7.34c-4.63,6.78,2.33,19.06,10.29,19.6A1.8,1.8,0,0,0,233,44.07a1.77,1.77,0,0,0-.19-.93c-1.07-2.08-2.6-2.82-4.61-2.22a1.45,1.45,0,0,1-1.15-.16c-2.78-1.82-6.91-7.59-3-10.22a.75.75,0,0,0,.28-.86l-1.16-3.22a1.37,1.37,0,0,0-1.74-.81A1.34,1.34,0,0,0,220.78,26.16Z" transform="translate(0 -0.01)"/><path class="cls-14" d="M163.23,42a3.71,3.71,0,0,1-.35,2.25.32.32,0,0,1-.43.09.31.31,0,0,1-.14-.23q-.85-14.41-12.47-17.49C138.08,23.5,128,30,127.05,42.5a.41.41,0,0,1-.42.36h0a.3.3,0,0,1-.33-.29c-.75-15.66,18-22.28,29.39-14.65Q162.33,32.36,163.23,42Z" transform="translate(0 -0.01)"/><path class="cls-14" d="M220.78,26.16a1.35,1.35,0,0,1,1.86-.36h0a1.42,1.42,0,0,1,.51.65l1.16,3.22a.75.75,0,0,1-.28.86c-3.91,2.63.22,8.4,3,10.22a1.45,1.45,0,0,0,1.15.16q3-.9,4.61,2.22a1.81,1.81,0,0,1-.8,2.43,1.88,1.88,0,0,1-.93.19C223.11,45.22,216.15,32.94,220.78,26.16Z" transform="translate(0 -0.01)"/><path class="cls-11" d="M118.43,34a71.77,71.77,0,0,0-1.21,16.42c.18,8.38-5.24,10.88-10.58,15.22-7.53,6.14-2.2,12.11-3,19.84-1,9.21-11.5,12.69-19.39,15.76-21.66,8.44-16.89,24.19-3.19,36.52a.77.77,0,0,1,.23.77l-9.86,37c-.13.45-.33.49-.6.11L63.9,166a3,3,0,0,0,0-2.67,15.34,15.34,0,0,1-.65-2.48Q59.83,135,57,109.41c35.4-15.7,31-64.83-8.65-70.27.2-.77.13-1.29-.19-1.55a2,2,0,0,1-.44-2.66,1.6,1.6,0,0,1,1.33-.69Z" transform="translate(0 -0.01)"/><path class="cls-11" d="M189.19,100.1l-20.07-.94a5.24,5.24,0,0,1-2.17-.41c-.38-.18-.41-.42-.11-.7,7.23-7,13.42-16.25,10.53-26.34-1.49-5.2-5.42-10.38-5.76-17.11s-.83-13.51-1.43-20.23a30.24,30.24,0,0,1,9.91-.2,1.08,1.08,0,0,1,.92.94Z" transform="translate(0 -0.01)"/><path d="M267.32,81.15A176,176,0,0,1,265,118c-3.49,20-12.25,39.1-32.42,46.45a57.74,57.74,0,0,1-22.72.35l-5-1.84-9.37-5.2a1.47,1.47,0,0,1-.39-1.89c21.13,15.43,49.18,10.2,60.95-13.92,9.24-19,11.06-42,9.87-62.77a.58.58,0,0,1,.51-.63h0c13.15-1.16,14.34-5.21,11.6-17.32-1.13-5-1.76-8.76-7.6-8.27a7.12,7.12,0,0,0-6.63,4.84,1.33,1.33,0,0,0,0,1,31.92,31.92,0,0,1,1.85,10.38c0,3.47,1.77,5.12,4.87,6a.28.28,0,0,1,.24.31.13.13,0,0,1,0,.06,1.09,1.09,0,0,1-.1.25.56.56,0,0,1-.64.28c-4.08-.85-5.58-3.22-5.6-7.42,0-4.82-3.85-11.07.42-14.5a1.55,1.55,0,0,0,.53-.75c1.15-3.4,2.83-14.79-3.73-14.24a.79.79,0,0,0-.71.57c-1,3.29.53,6.31-.56,10.17-1.3,4.57-5,8.55-5.79,12.74a43.08,43.08,0,0,0-.25,7.36c.33,18.41-6.7,37.7-17,52.79-3.53,5.15-11.66,14.75-17.84,10.06-9.89-7.53-15.27-20.63-24.67-29-.76-1-.81-1.5-.17-1.44l2.48,1.72,7.53,8.94a113.28,113.28,0,0,0,14.12,17.59c4.19,4.27,8.32,1.54,11.82-2.05a56,56,0,0,0,9.75-13.08,99.17,99.17,0,0,0,7.69-16.92,89,89,0,0,0,5.07-32.3,21.29,21.29,0,0,1,2.08-9.18,20.31,20.31,0,0,0,4.25-14.77c-.34-3.07,1-5.84,4.5-4.4,4.49,1.88,4.12,9.22,3,13.68a.51.51,0,0,0,.37.62h.17c1.22-.08,2.51-.77,3.58-.74q6,.13,7.48,6.78c2.52,11.53,4.74,20.19-10.92,21.36a.46.46,0,0,0-.49.42.42.42,0,0,0,0,.16Z" transform="translate(0 -0.01)"/><path class="cls-13" d="M136.6,74.37a8.47,8.47,0,0,1,2.61.69c1.36.61,2.32,2.75,4.49,1.75a2.07,2.07,0,0,0,1-2.75,2,2,0,0,0-.29-.46c-1.16-1.38-2.51-1.43-4.07-.13a.94.94,0,0,1-.79.19l-4.43-.9c-2.32-3.87-3.62-6.44-3.89-7.69q-1.23-5.61-1.29-18.5a.55.55,0,0,1,.45-.62h0c5-1,10.39.06,14.42-.5a29.14,29.14,0,0,0,14.68-6.51.45.45,0,0,1,.63.06.46.46,0,0,1,.1.25,39.19,39.19,0,0,1-.44,11.08c-1,5.21-.38,12.78-2.43,17.9C154.14,76.37,143.9,84.73,136.6,74.37Z" transform="translate(0 -0.01)"/><path class="cls-13" d="M195.13,155.91c-1.27-16.8-.72-33.87-1-50.74a1.21,1.21,0,0,1,.31-.87l.41-.5c9.4,8.41,14.78,21.51,24.67,29,6.18,4.69,14.31-4.91,17.84-10.06,10.34-15.09,17.37-34.38,17-52.79a43.08,43.08,0,0,1,.25-7.36c.82-4.19,4.49-8.17,5.79-12.74C261.49,46,260,43,261,39.68a.79.79,0,0,1,.71-.57c6.56-.55,4.88,10.84,3.73,14.24a1.55,1.55,0,0,1-.53.75c-4.27,3.43-.44,9.68-.42,14.5,0,4.2,1.52,6.57,5.6,7.42a.56.56,0,0,0,.64-.28,1.09,1.09,0,0,0,.1-.25.29.29,0,0,0-.17-.36h-.06c-3.1-.86-4.84-2.51-4.87-6a32.1,32.1,0,0,0-1.85-10.32,1.33,1.33,0,0,1,0-1A7.12,7.12,0,0,1,270.47,53c5.84-.49,6.47,3.28,7.6,8.27,2.74,12.11,1.55,16.16-11.6,17.32a.56.56,0,0,0-.54.6v0C267.12,100,265.3,123,256.06,142,244.31,166.11,216.26,171.34,195.13,155.91Z" transform="translate(0 -0.01)"/><path class="cls-14" d="M79.94,74.6a34.18,34.18,0,0,1-68.36,0h0A34.18,34.18,0,0,1,45.76,40.42h0A34.18,34.18,0,0,1,79.94,74.6ZM21.64,57.85c-.45.06-.86.66-1.22,1.82a3.25,3.25,0,0,0-1.17,1.13C9.71,81.35,23.51,105.52,46.9,104a31.31,31.31,0,0,0,23-12.8A12.44,12.44,0,0,0,74,82,29.41,29.41,0,0,0,72.68,63.1C64.33,40.87,36,39.29,21.77,56.79A1.62,1.62,0,0,0,21.64,57.85Z" transform="translate(0 -0.01)"/><path d="M72.72,63.1A37.8,37.8,0,0,0,62.2,51.32c-12.8-9.14-28.94-6.13-39.06,5.8a1.9,1.9,0,0,1-1.5.73,1.69,1.69,0,0,1,.17-1.06C36,39.29,64.37,40.87,72.72,63.1Z" transform="translate(0 -0.01)"/><path class="cls-13" d="M72.72,63.1A29.41,29.41,0,0,1,74.08,82a30.31,30.31,0,0,0-4.14,9.16,31.31,31.31,0,0,1-23,12.8,42.34,42.34,0,0,1-14-4.08C18,92.34,13.75,75.9,20.71,60.62a.91.91,0,0,0-.22-1c.36-1.16.77-1.76,1.22-1.82a1.9,1.9,0,0,0,1.5-.73c10.12-11.93,26.26-14.94,39.06-5.8A37.75,37.75,0,0,1,72.72,63.1Zm-41,19.1a.6.6,0,0,1-.58-.59.56.56,0,0,1,.26-.47c4.8-3.08,15.3-8.2,9.75-15.63-2.95-4-11.35-3.25-15.84-1.74a.56.56,0,0,0-.42.67v0l.61,3.08a.56.56,0,0,0,.65.45h.08c2.29-.68,9-1.78,10.53.67,1.31,2-.28,3.55-2.09,4.65-5.48,3.35-11.32,6.26-9.75,12.9a.51.51,0,0,0,.54.43H42.2a.44.44,0,0,0,.5-.37.29.29,0,0,0,0-.13v-3.5a.58.58,0,0,0-.56-.58h0Zm32-5.7V63.88a.76.76,0,0,0-.53-.73c-3.25-1.07-5.27-.41-7.45,2.34-3.12,3.93-10.4,10.37-9.08,15.64a.55.55,0,0,0,.58.46l10.83.08a.64.64,0,0,1,.64.64v3.84a.44.44,0,0,0,.37.5H63.2a.44.44,0,0,0,.5-.37.29.29,0,0,0,0-.13v-4a.67.67,0,0,1,.65-.67h.06l2.09.17a.59.59,0,0,0,.62-.54V81l-.28-3.37a.53.53,0,0,0-.49-.57H66.2l-1.75.11a.74.74,0,0,1-.78-.69Z" transform="translate(0 -0.01)"/><path class="cls-14" d="M129.84,64.42a.71.71,0,0,1-.63.74h-.08A4.42,4.42,0,0,1,124.46,61h0L124,54.32a4.42,4.42,0,0,1,4-4.83H128a.69.69,0,0,1,.74.63h0Z" transform="translate(0 -0.01)"/><path class="cls-14" d="M160.93,49.59a.26.26,0,0,1,.28-.26h.16a4.83,4.83,0,0,1,4.33,5.28v0h0l-.53,6.18A4.85,4.85,0,0,1,160,65.33h-.14a.29.29,0,0,1-.25-.3Z" transform="translate(0 -0.01)"/><path d="M20.42,59.66a.91.91,0,0,1,.22,1c-7,15.27-2.72,31.72,12.23,39.28a42.34,42.34,0,0,0,14,4.08C23.48,105.56,9.68,81.39,19.22,60.84A3.23,3.23,0,0,1,20.42,59.66Z" transform="translate(0 -0.01)"/><path class="cls-14" d="M31.69,82.2,42.08,82a.58.58,0,0,1,.59.55v0h0v3.53a.44.44,0,0,1-.37.5.29.29,0,0,1-.13,0H25.44a.51.51,0,0,1-.54-.43c-1.57-6.64,4.27-9.55,9.75-12.9,1.81-1.1,3.4-2.61,2.09-4.65-1.57-2.45-8.24-1.35-10.53-.67a.59.59,0,0,1-.72-.38v-.06l-.61-3.08a.56.56,0,0,1,.37-.7h0c4.49-1.51,12.89-2.22,15.84,1.74,5.55,7.43-5,12.55-9.75,15.63a.58.58,0,0,0-.17.79h0A.61.61,0,0,0,31.69,82.2Z" transform="translate(0 -0.01)"/><path class="cls-14" d="M64.45,77.24l1.75-.11a.53.53,0,0,1,.63.41.76.76,0,0,1,0,.15l.25,3.38a.59.59,0,0,1-.54.62h-.08l-2.09-.17a.66.66,0,0,0-.71.58h0v4a.44.44,0,0,1-.37.5.29.29,0,0,1-.13,0h-4a.44.44,0,0,1-.49-.38.24.24,0,0,1,0-.12V82.27a.64.64,0,0,0-.64-.64l-10.83-.08a.55.55,0,0,1-.58-.46c-1.32-5.27,6-11.71,9.08-15.64,2.18-2.75,4.2-3.41,7.45-2.34a.76.76,0,0,1,.53.73V76.46a.75.75,0,0,0,.73.74Zm-5.83-7.35a.42.42,0,0,0-.45-.39h0a.41.41,0,0,0-.29.15L52,76.54a.41.41,0,0,0,0,.59.39.39,0,0,0,.31.1l6.37-.51a.43.43,0,0,0,.39-.45h0Z" transform="translate(0 -0.01)"/><path class="cls-14" d="M135.14,72.76l4.43.9a.94.94,0,0,0,.79-.19c1.56-1.3,2.91-1.25,4.07.13a2.06,2.06,0,0,1-.26,2.9h0a2,2,0,0,1-.46.3c-2.17,1-3.13-1.14-4.49-1.75a8.47,8.47,0,0,0-2.61-.69q-6.94-1.26-8.26-7.37c-.06-.26,0-.38.31-.36H129a.3.3,0,0,1,.34.23C130.33,70.06,132.27,72,135.14,72.76Z" transform="translate(0 -0.01)"/><path class="cls-13" d="M58.62,69.89l.45,6.38a.43.43,0,0,1-.39.45h0l-6.37.51a.42.42,0,0,1-.46-.38h0a.39.39,0,0,1,.1-.31l5.89-6.88a.43.43,0,0,1,.59-.06A.44.44,0,0,1,58.62,69.89Z" transform="translate(0 -0.01)"/><path class="cls-13" d="M137,77.66q.09-.78.72-.3,8.49,6.63,15.81-1.17a.3.3,0,0,1,.42,0h0a.33.33,0,0,1,.11.21l1.78,21.5a.64.64,0,0,0,.6.63l10,1.41c1,.14,1.26.65.86,1.55-9.05,20-35.82,18.73-45.2-.74-.17-.34-.07-.53.31-.58l11.31-1.64a.71.71,0,0,0,.65-.65Z" transform="translate(0 -0.01)"/><path class="cls-15" d="M248.1,98.66a99.51,99.51,0,0,1-7.68,16.88q-13.17-9.33-28.1-6c-.91-3.77-5.93-2.79-4.55,2L204.66,113,197.13,104l-1-7.21,3.57-1.89a.89.89,0,0,0,.46-.8l-.42-11a.88.88,0,0,1,.73-1l9.48-2.61A.86.86,0,0,1,211,80l5.47,9.83a.93.93,0,0,0,.81.48H224a.86.86,0,0,0,.81-.49l5.3-10.25a.55.55,0,0,1,.65-.29l10,2.74a.83.83,0,0,1,.63.84l-.34,11.38a.62.62,0,0,0,.34.6Z" transform="translate(0 -0.01)"/><path class="cls-11" d="M274.31,199.23c-23.13-13.4-42.57,17.93-20.43,32.69a48.11,48.11,0,0,1-8.41,9.6c-11.07-15.24-30.84,2.52-18.65,14.75q-2.73,5-9.16,6.33L216,252.88l-7-55.76,2.33-.62a1.23,1.23,0,0,0,.79-.64l4.71-9.37a.89.89,0,0,1,.86-.54l7-.15a.6.6,0,0,1,.59.35l5.13,9.76a1.14,1.14,0,0,0,1.27.57l9.72-2.45a.68.68,0,0,0,.5-.67l-.42-11.44a.63.63,0,0,1,.34-.63l6.35-3.71a.74.74,0,0,1,.87,0l9.19,5.95a.77.77,0,0,0,1-.1l7.52-7.27a.64.64,0,0,0,.1-.87l-6.26-9.9a.89.89,0,0,1,0-.94L263.9,159a1.49,1.49,0,0,1,1.34-.72l10.75.3a.73.73,0,0,0,.72-.53l2.77-9.92a.71.71,0,0,0-.37-.88q-4.38-2.36-8.87-4.48c-2.86-1.35-1.76-6.35-1.63-8.45a1.08,1.08,0,0,1,.59-.9l9.39-4.78a1.12,1.12,0,0,0,.56-1.23l-2.26-9.4a1.19,1.19,0,0,0-1.07-.91A32.62,32.62,0,0,0,265,118a176,176,0,0,0,2.28-36.89q2.76-1.34,3.78.82a158.83,158.83,0,0,1,9.31,25.71Q293.37,154.66,274.31,199.23Z" transform="translate(0 -0.01)"/><path d="M74.08,82a12.44,12.44,0,0,1-4.14,9.16A30.31,30.31,0,0,1,74.08,82Z" transform="translate(0 -0.01)"/><path class="cls-14" d="M169.12,99.16l20.07.94c2.33,0,4.24-.2,5.46,2.26-.64-.06-.59.42.17,1.44l-.41.5a1.21,1.21,0,0,0-.31.87c.31,16.87-.24,33.94,1,50.74a1.47,1.47,0,0,0,.39,1.89,8,8,0,0,0,.16,4.07,242.72,242.72,0,0,0,1.43,28.53,16.26,16.26,0,0,1-5.2,14.44.6.6,0,0,0-.21.52.36.36,0,0,1-.27.37c.31-.13.2-.14-.32,0a.6.6,0,0,0-.28.13c-9.34,6.56-22.33,7.44-33.34,6.6-17-1.3-34.25-1.2-51.24-2.85-6.17-1.56-10-4.36-9.76-10.69q.44-11.11.44-16.57l.74-6.51q1.23-14.39,2.21-29a37,37,0,0,0-.46-8.86Q97,124.77,93.45,111.49c1.08.38,1-.25-.18-1.91,0-2.46-1.35-5-4-7.79L119.66,100a.77.77,0,0,1,.79.44c6.67,12.69,16.85,19.44,31.44,15.79Q165.3,112.81,169.12,99.16Z" transform="translate(0 -0.01)"/><path class="cls-14" d="M89.28,101.76c2.67,2.74,4,5.33,4,7.79a50.29,50.29,0,0,0-7.94,16.68.3.3,0,0,1-.36.2.26.26,0,0,1-.2-.25C84.35,120.27,83.84,105.78,89.28,101.76Z" transform="translate(0 -0.01)"/><path class="cls-11" d="M24.89,106.06a39.52,39.52,0,0,0,17.73,5.6,96.89,96.89,0,0,0,2,19.66c-3.75-4.47-13.4-12.92-19.56-12.63a.86.86,0,0,0-.82.66c-1.41,5.1,2.5,6.14,5.79,8.45a1.27,1.27,0,0,1-.83,2.3c-11.42-.88-3.4-11.13-10.08-16.66Z" transform="translate(0 -0.01)"/><path class="cls-13" d="M212.32,109.66q0,2.5-2.4,2.46a5.51,5.51,0,0,1-2.15-.47C206.39,106.83,211.41,105.85,212.32,109.66Z" transform="translate(0 -0.01)"/><path class="cls-11" d="M240.42,115.58a56,56,0,0,1-9.75,13.08c-3.5,3.59-7.63,6.32-11.82,2.05A113.92,113.92,0,0,1,204.66,113l3.11-1.41a5.51,5.51,0,0,0,2.15.47,2.14,2.14,0,0,0,2.4-2.46Q227.26,106.25,240.42,115.58Z" transform="translate(0 -0.01)"/><path class="cls-13" d="M57,109.39q2.83,25.58,6.25,51.47a15.34,15.34,0,0,0,.65,2.48,3,3,0,0,1,0,2.67l-9.2-14.29-5-40.55Z" transform="translate(0 -0.01)"/><path class="cls-12" d="M49.7,111.17l5,40.55q-4.89-5.83-6-9.32-2-6.21-4.1-11.13a96.37,96.37,0,0,1-2-19.61Z" transform="translate(0 -0.01)"/><path class="cls-13" d="M93.48,111.46q3.58,13.29,5.94,26.54a37,37,0,0,1,.46,8.86q-1,14.56-2.21,28.95c-2.9,9.82-11.19,32.45-23.69,31.72-22.17-1.3-29.72-34.77-32.44-51.64-.85-5.28-2.8-10.64-7.11-13-3.94-2.15-11.89-3-16.25-6.6-5.5-4.56-10.17-15.07-6.61-22.51a1,1,0,0,1,.8-.57c5.23-.63,9.31,2.62,8.71,8.09-.52,4.74.57,8.11,5.61,9.52a4.89,4.89,0,0,0,4.92-1.11,1.59,1.59,0,0,0,.09-2.22,1.61,1.61,0,0,0-.28-.24c-2.54-1.71-6.84-3.22-6.14-6.94a.55.55,0,0,1,.64-.46H26A34.38,34.38,0,0,1,41.69,130c4,4.46,4.13,10.24,7.17,15.28A357.45,357.45,0,0,0,70.71,177.5c.76,1,1.3.89,1.61-.33,5.16-20.63,10.05-41.44,18-60.87A14.29,14.29,0,0,1,93.48,111.46Z" transform="translate(0 -0.01)"/><path class="cls-15" d="M209,197.12,204.89,163l5,1.84a25.25,25.25,0,0,0,22.72-.35C252.78,157.14,261.54,138,265,118a32.62,32.62,0,0,1,10.78-.9,1.19,1.19,0,0,1,1.07.91l2.26,9.4a1.12,1.12,0,0,1-.56,1.23l-9.39,4.78a1.08,1.08,0,0,0-.59.9c-.13,2.1-1.23,7.1,1.63,8.45s6,2.91,8.87,4.48a.71.71,0,0,1,.37.88l-2.77,9.92a.73.73,0,0,1-.72.53l-10.75-.3a1.49,1.49,0,0,0-1.34.72l-3.38,5.43a.89.89,0,0,0,0,.94l6.26,9.9a.64.64,0,0,1-.1.87l-7.52,7.27a.77.77,0,0,1-.95.1l-9.19-6a.74.74,0,0,0-.87,0l-6.3,3.69a.63.63,0,0,0-.34.63l.42,11.44a.68.68,0,0,1-.5.67l-9.72,2.45a1.14,1.14,0,0,1-1.27-.57l-5.13-9.76a.6.6,0,0,0-.59-.35l-7,.15a.89.89,0,0,0-.86.54l-4.71,9.37a1.23,1.23,0,0,1-.79.64Z" transform="translate(0 -0.01)"/><path class="cls-11" d="M11.31,129.39a20.42,20.42,0,0,0,6.13,7.94c7,5.45,17.35,3.25,21.15,12.57l-4.52-.55a.9.9,0,0,1-.75-.66l-.72-2.95a1,1,0,0,0-.8-.78,6.41,6.41,0,0,0-5.47,1.13,1,1,0,0,0-.41.81v4.21a1.18,1.18,0,0,1-.31.8,4.6,4.6,0,0,1-3.19,1.51,1,1,0,0,1-.72-.27A7.58,7.58,0,0,0,18,151.06a.87.87,0,0,0-.88.29l-2.62,3a.75.75,0,0,0-.06.91l2,3.11a1.58,1.58,0,0,1,.24.85,4.49,4.49,0,0,1-1.77,3.48.9.9,0,0,1-.5.16l-4.26-.16a.91.91,0,0,0-1,.74l-1,3.8a.89.89,0,0,0,.44,1l3.84,2A1.24,1.24,0,0,1,13,171a4.53,4.53,0,0,1-.17,3.45,1.38,1.38,0,0,1-.61.63l-3.5,1.86a1,1,0,0,0-.57,1,7.48,7.48,0,0,0,1.67,4.43.92.92,0,0,0,.76.32l4-.37a.94.94,0,0,1,1,.51l1.46,2.59a.8.8,0,0,1,0,.82l-2.62,3.91a.74.74,0,0,0,.1,1l3.16,3.17a.85.85,0,0,0,1.06.1l3.88-2.7a1,1,0,0,1,1.1,0l2.35,1.66a.69.69,0,0,1,.29.59l-.27,4.55a.8.8,0,0,0,.65.9l4,1.09a1,1,0,0,0,1.18-.51l2.24-4.25a.67.67,0,0,1,.68-.36l3,.31a.86.86,0,0,1,.7.46l2.29,4a.76.76,0,0,0,.84.33l4.09-1.24a.55.55,0,0,0,.43-.64l-.38-4.17a1.11,1.11,0,0,1,.3-.93,10.6,10.6,0,0,1,4.5-2.94l4,6.53c-1.17.09-1.7.53-1.6,1.32q4.26,33,8.28,65.18L39.59,247.16a1,1,0,0,1-.4-.79c0-.6-.13-1-.35-1a4.87,4.87,0,0,0,.55-3.54.91.91,0,0,1,.43-1,2.54,2.54,0,0,1,3.58.08,2.49,2.49,0,0,1,.42.6.74.74,0,0,0,1,.15h0l2.22-1.83a.74.74,0,0,0,.21-.86c-.76-1.78-3-3-.66-4.92a1.4,1.4,0,0,1,1-.35l2.39.09a.71.71,0,0,0,.81-.61.17.17,0,0,0,0-.07l.37-2.54a.74.74,0,0,0-.43-.83c-1-.51-2.34-.89-2.8-1.89-.86-1.89,1.54-2.88,3.18-3.63a.52.52,0,0,0,.32-.66l0-.05L50.52,221a.75.75,0,0,0-.77-.54H47.1a1.2,1.2,0,0,1-1-.58q-1.34-2.28,1-3.84a.52.52,0,0,0,.25-.69.49.49,0,0,0-.14-.18l-2-2.28a.68.68,0,0,0-.85-.15l-3,1.58a.94.94,0,0,1-1.09-.11,2.82,2.82,0,0,1-.9-3.53.94.94,0,0,0-.16-.91c-1.41-1.61-4.19-1.69-4.63,1a.9.9,0,0,1-.63.71l-1.87.53a.75.75,0,0,1-.84-.34l-1.56-2.68a.77.77,0,0,0-.95-.4l-2.18.54a.9.9,0,0,0-.68.87v3.24a.91.91,0,0,1-.7.94,3.14,3.14,0,0,1-3.77-1.36.59.59,0,0,0-.82-.15h0l-2.33,2.09a.61.61,0,0,0,0,.86l0,0h0a5.81,5.81,0,0,1,1.52,3.71.77.77,0,0,1-.42.7,5.82,5.82,0,0,1-3.72.47,1.41,1.41,0,0,0,.81-.32q.16-.21-.12-.66c-18-27.59-19.53-59.55-7.54-89.4C9,129.45,9.87,129.21,11.31,129.39Z" transform="translate(0 -0.01)"/><path class="cls-15" d="M38.59,149.9l2.18,8.64q-12.2-1.31-16.71,6.78c-4.73,8.43-.5,18.35,8.6,20.69q6.95,1.78,14.24-3.8l3.64,8.34a10.6,10.6,0,0,0-4.5,2.94,1.11,1.11,0,0,0-.3.93l.38,4.17a.55.55,0,0,1-.43.64l-4.09,1.24a.75.75,0,0,1-.84-.33l-2.29-4a.86.86,0,0,0-.7-.46l-3-.31a.67.67,0,0,0-.68.36L31.85,200a1,1,0,0,1-1.18.51l-4-1.09a.8.8,0,0,1-.65-.9l.27-4.55a.69.69,0,0,0-.29-.59l-2.26-1.7a1,1,0,0,0-1.1,0l-3.93,2.68a.85.85,0,0,1-1.06-.1l-3.16-3.17a.74.74,0,0,1-.1-.95L17,186.21a.8.8,0,0,0,0-.82l-1.46-2.59a.94.94,0,0,0-1-.51l-4,.37a.92.92,0,0,1-.76-.32A7.5,7.5,0,0,1,8.12,178a1,1,0,0,1,.57-1l3.5-1.86a1.38,1.38,0,0,0,.61-.63A4.53,4.53,0,0,0,13,171a1.24,1.24,0,0,0-.63-.75l-3.84-2a.89.89,0,0,1-.44-1l1-3.8a.91.91,0,0,1,1-.74l4.26.16a.9.9,0,0,0,.5-.16,4.49,4.49,0,0,0,1.77-3.48,1.58,1.58,0,0,0-.24-.85l-2-3.11a.75.75,0,0,1,.06-.91l2.62-3a.87.87,0,0,1,.88-.29,7.58,7.58,0,0,1,3.74,2.09,1,1,0,0,0,.72.27A4.6,4.6,0,0,0,25.56,152a1.18,1.18,0,0,0,.31-.8v-4.21a1,1,0,0,1,.41-.81A6.39,6.39,0,0,1,31.84,145a1,1,0,0,1,.8.78l.72,2.95a.9.9,0,0,0,.75.66Z" transform="translate(0 -0.01)"/><path class="cls-11" d="M40.77,158.54a166.55,166.55,0,0,0,6.13,23.67q-7.29,5.58-14.24,3.8c-9.1-2.34-13.33-12.26-8.6-20.69Q28.58,157.24,40.77,158.54Z" transform="translate(0 -0.01)"/><path class="cls-11" d="M195.68,161.87l1.09,1.9a2.55,2.55,0,0,1,.31.89q5.76,41.4,10.49,83c.16,1.41-.29,1.81-.77,3a387.33,387.33,0,0,0-15.37-44.92.36.36,0,0,0,.27-.37.6.6,0,0,1,.21-.52,16.26,16.26,0,0,0,5.2-14.44A240.86,240.86,0,0,1,195.68,161.87Z" transform="translate(0 -0.01)"/><path class="cls-13" d="M232.62,164.49a25.25,25.25,0,0,1-22.72.35A57.74,57.74,0,0,0,232.62,164.49Z" transform="translate(0 -0.01)"/><path class="cls-11" d="M96.93,182.32q0,5.46-.44,16.57c-.25,6.33,3.59,9.13,9.76,10.69-12,22.7-17.39,41.73-23.17,67.8-3.09.5-5.11.21-5.55-3.36q-3.69-30.36-7.62-60.61a11.4,11.4,0,0,1,.55-5C85,212.36,92.84,192.57,96.93,182.32Z" transform="translate(0 -0.01)"/><path d="M274.31,199.23a19,19,0,0,1,8,13.94c1.47,15.85-14.57,26-28.47,18.75C231.74,217.16,251.18,185.83,274.31,199.23Zm7,15.92a18,18,0,1,0-18,18,18,18,0,0,0,18-18v0Z" transform="translate(0 -0.01)"/><path class="cls-12" d="M54.52,197.08a33.71,33.71,0,0,0,7,7.06l4.18,31.42c-.58.14-.85.42-.79.85q2.31,18.51,4.76,37c.7,5.24,2.62,7.74,6.55,10.8q-7.53,1.32-11.38-4.31c-2.8-4.08-3-11-3.62-16.35q-4-32.22-8.28-65.18C52.84,197.66,53.35,197.17,54.52,197.08Z" transform="translate(0 -0.01)"/><path class="cls-13" d="M281.35,215.15a18,18,0,1,1-18-18A18,18,0,0,1,281.35,215.15Zm-5.27,1.17a2.45,2.45,0,0,0-.76-3.39h0l-15.06-9.49a2.49,2.49,0,0,0-3.41.78h0l-6.51,10.34a2.45,2.45,0,0,0,.76,3.39h0l15.07,9.49a2.46,2.46,0,0,0,3.39-.77h0Z" transform="translate(0 -0.01)"/><path d="M269.57,226.66a2.46,2.46,0,0,1-3.39.79h0L251.1,218a2.46,2.46,0,0,1-.78-3.39h0l6.51-10.34a2.49,2.49,0,0,1,3.41-.78h0l15.06,9.49a2.46,2.46,0,0,1,.78,3.39h0ZM275,215.81a1.37,1.37,0,0,0-.43-1.89h0l-14.91-9.39a1.38,1.38,0,0,0-1.89.43L251.4,215.1a1.37,1.37,0,0,0,.43,1.89h0l14.91,9.39a1.37,1.37,0,0,0,1.89-.43h0Z" transform="translate(0 -0.01)"/><path class="cls-14" d="M268.63,226a1.37,1.37,0,0,1-1.89.43h0L251.84,217a1.37,1.37,0,0,1-.43-1.89h0L257.79,205a1.38,1.38,0,0,1,1.89-.43l14.91,9.39a1.37,1.37,0,0,1,.43,1.89h0ZM263.11,215l-3.3-6.85a.42.42,0,0,0-.54-.22l0,0h0a.58.58,0,0,0-.26.35.86.86,0,0,0,.1.63q1.59,3.54,3.24,7.15a.81.81,0,0,0,.74.49c2.71.08,5.41.06,8.09-.08a.81.81,0,0,0,.74-.48.49.49,0,0,0-.22-.66h0a.37.37,0,0,0-.23-.05l-7.48.16a.82.82,0,0,1-.85-.46Z" transform="translate(0 -0.01)"/><path class="cls-15" d="M191.43,205.73a387.05,387.05,0,0,1,15.41,44.93,156.24,156.24,0,0,1,4.34,24c.18,1.69-.48,2.54-2,2.54q-63,.23-126.09.19c5.78-26.07,11.12-45.1,23.17-67.8,17,1.65,34.19,1.55,51.24,2.85,11,.84,24,0,33.34-6.6a.6.6,0,0,1,.28-.13C191.63,205.59,191.74,205.6,191.43,205.73Z" transform="translate(0 -0.01)"/><path d="M263.91,215.51l7.48-.16a.48.48,0,0,1,.5.46h0a.69.69,0,0,1-.05.24.81.81,0,0,1-.74.48c-2.68.14-5.38.16-8.09.08a.81.81,0,0,1-.74-.49c-1.1-2.41-2.18-4.8-3.24-7.15a.86.86,0,0,1-.1-.63.58.58,0,0,1,.26-.35.43.43,0,0,1,.59.11v.06l3.3,6.85A.81.81,0,0,0,263.91,215.51Z" transform="translate(0 -0.01)"/><path class="cls-14" d="M38.84,245.32l-2.68.3a.63.63,0,0,1-.66-.35l-1-1.83a1.76,1.76,0,0,0-2.38-.76h0a3,3,0,0,0-1.77,2.58,1.56,1.56,0,0,1-1.49,1.63,1.53,1.53,0,0,1-.67-.12,3.15,3.15,0,0,1-2-2.89v-2a1.82,1.82,0,0,0-1.81-1.82,1.77,1.77,0,0,0-1,.31l-2.07,1.36a.74.74,0,0,1-1-.11l-1.87-1.91a.63.63,0,0,1-.09-.87h0l1.5-2.24a1,1,0,0,0,.12-.88c-.64-1.83-1.94-2.33-3.92-1.5a.75.75,0,0,1-1-.41h0l-1.07-3a.57.57,0,0,1,.25-.78l.13,0,2.19-.87a1.87,1.87,0,0,0,1-2.45,1.85,1.85,0,0,0-.87-1l-2.2-1.13a.86.86,0,0,1-.5-.8,3.52,3.52,0,0,1,1.62-3.19,5.82,5.82,0,0,0,3.72-.47.77.77,0,0,0,.42-.7,5.81,5.81,0,0,0-1.52-3.71.62.62,0,0,1,0-.88h0l2.33-2.09a.57.57,0,0,1,.82,0h0v.05a3.14,3.14,0,0,0,3.77,1.36.91.91,0,0,0,.7-.94V210a.9.9,0,0,1,.68-.87l2.18-.54a.77.77,0,0,1,1,.4l1.56,2.68a.75.75,0,0,0,.84.34l1.87-.53a.9.9,0,0,0,.63-.71c.44-2.72,3.22-2.64,4.63-1a.94.94,0,0,1,.16.91,2.82,2.82,0,0,0,.9,3.53.94.94,0,0,0,1.09.11l3-1.58a.68.68,0,0,1,.85.15l2,2.28a.52.52,0,0,1,.07.73.49.49,0,0,1-.18.14q-2.31,1.56-1,3.84a1.2,1.2,0,0,0,1,.58h2.73a.75.75,0,0,1,.77.54l.92,2.56a.52.52,0,0,1-.25.69l-.05,0c-1.64.75-4,1.74-3.18,3.63.46,1,1.82,1.38,2.8,1.89a.74.74,0,0,1,.43.83l-.37,2.54a.72.72,0,0,1-.75.69h-.07l-2.39-.09a1.4,1.4,0,0,0-1,.35c-2.34,2-.1,3.14.66,4.92a.74.74,0,0,1-.21.86l-2.31,1.8a.75.75,0,0,1-1.05-.11h0a2.53,2.53,0,0,0-3.4-1.1,2.49,2.49,0,0,0-.6.42.91.91,0,0,0-.43,1A4.9,4.9,0,0,1,38.84,245.32ZM42,227.22a9.31,9.31,0,1,0-18.62,0h0a9.31,9.31,0,0,0,9.31,9.31h0A9.31,9.31,0,0,0,42,227.22Z" transform="translate(0 -0.01)"/><circle class="cls-11" cx="32.7" cy="227.2" r="9.31"/><path class="cls-15" d="M65.68,235.56q2.88,18.19,5,36.53c1.72,14.62,13.1,12.08,23.86,12.06a.6.6,0,0,1,.6.49.69.69,0,0,1,0,.35.56.56,0,0,1-.53.39c-3.73,0-7.45,0-11.18-.08a26.79,26.79,0,0,1-7.23-1.06c-3.93-3.06-5.85-5.56-6.55-10.8q-2.46-18.51-4.76-37C64.84,236,65.1,235.66,65.68,235.56Z" transform="translate(0 -0.01)"/><path d="M245.47,241.52q4.36,11.14-4.48,16.25c-5,2.89-9.94,2.25-14.17-1.5C214.63,244,234.4,226.28,245.47,241.52Zm.29,6.07A10.73,10.73,0,1,0,235,258.32a10.72,10.72,0,0,0,10.73-10.73Z" transform="translate(0 -0.01)"/><path class="cls-13" d="M245.76,247.59A10.73,10.73,0,1,1,235,236.86,10.72,10.72,0,0,1,245.76,247.59Zm-9.65-.71a.41.41,0,0,1-.36-.37l-.3-5a.38.38,0,0,0-.39-.39.39.39,0,0,0-.39.39h0l-.33,5a.41.41,0,0,1-.37.36l-5,.3a.38.38,0,0,0-.4.36v0a.4.4,0,0,0,.39.4h0l5,.33a.38.38,0,0,1,.36.37l.3,5a.38.38,0,0,0,.37.39h0a.4.4,0,0,0,.4-.38l.33-5a.37.37,0,0,1,.37-.36l5-.3a.38.38,0,0,0,.39-.39h0a.38.38,0,0,0-.37-.39h0Z" transform="translate(0 -0.01)"/><path d="M236.11,246.88l5,.33a.38.38,0,0,1,.38.38h0a.38.38,0,0,1-.39.39h0l-5,.3a.37.37,0,0,0-.37.36l-.33,5a.4.4,0,0,1-.4.38.38.38,0,0,1-.38-.38h0l-.3-5a.38.38,0,0,0-.36-.37l-5-.33a.4.4,0,0,1-.39-.4.38.38,0,0,1,.38-.38h0l5-.3a.41.41,0,0,0,.37-.36l.33-5a.38.38,0,0,1,.39-.39.39.39,0,0,1,.39.39h0l.3,5A.4.4,0,0,0,236.11,246.88Z" transform="translate(0 -0.01)"/><path d="M216,252.88l1.68,9.72c1.4,12,5.39,22.78-11.66,22.79H169.92a1.57,1.57,0,0,1-.84-.21.54.54,0,0,1-.19-.74h0a.53.53,0,0,1,.46-.25H207.9c9.79,0,10.54-5.69,9.44-14q-1-7.62-1.91-15.2C215.3,253.89,215.48,253.21,216,252.88Z" transform="translate(0 -0.01)"/><rect x="115.98" y="284.13" width="45.2" height="1.24" rx="0.61"/><path class="cls-15" d="M49,332.4c0-9.16,5.74-14.61,12.83-14.61a11.15,11.15,0,0,1,8.07,3.55l-2.66,3.2a7.32,7.32,0,0,0-5.31-2.43c-4.55,0-7.83,3.85-7.83,10.14s3,10.26,7.71,10.26a7.84,7.84,0,0,0,6-2.88l2.66,3.12a11.17,11.17,0,0,1-8.83,4.08C54.57,346.83,49,341.66,49,332.4Z" transform="translate(0 -0.01)"/><path class="cls-15" d="M73.31,335.81c0-7,4.76-11,10-11s10,4,10,11-4.76,11-10,11S73.31,342.79,73.31,335.81Zm14.94,0c0-4.21-1.85-7-4.93-7s-4.94,2.81-4.94,7,1.85,7,4.94,7S88.25,340,88.25,335.81Z" transform="translate(0 -0.01)"/><path class="cls-15" d="M98.21,325.28h4l.38,2.84h.14c1.88-1.83,4-3.36,6.9-3.36,4.51,0,6.48,3,6.48,8.36v13.2h-4.94V333.76c0-3.46-1-4.77-3.27-4.77-1.85,0-3.07.91-4.8,2.63v14.7H98.17Z" transform="translate(0 -0.01)"/><path class="cls-15" d="M122.93,339.22v-10h-3v-3.7l3.25-.22.59-5.74h4.07v5.74h5.36v3.92h-5.36v10c0,2.48,1,3.7,3,3.7a6.62,6.62,0,0,0,2.2-.48l.84,3.63a13.49,13.49,0,0,1-4.31.77C124.73,346.83,122.93,343.76,122.93,339.22Z" transform="translate(0 -0.01)"/><path class="cls-15" d="M135.58,340.66c0-4.5,3.73-6.85,12.37-7.78-.07-2.26-1-4.14-3.82-4.14a11.63,11.63,0,0,0-5.91,2.07l-1.82-3.29a16.4,16.4,0,0,1,8.63-2.76c5.26,0,7.85,3.24,7.85,9.1v12.46h-4L148.5,344h-.14a10.17,10.17,0,0,1-6.52,2.84,5.89,5.89,0,0,1-6.26-5.5C135.57,341.11,135.57,340.88,135.58,340.66Zm12.37,0v-4.73c-5.71.72-7.61,2.21-7.61,4.34,0,1.85,1.27,2.67,3,2.67S146.39,342.12,148,340.66Z" transform="translate(0 -0.01)"/><path class="cls-15" d="M157.42,335.81c0-7,5-11,10.55-11a9,9,0,0,1,6.15,2.37l-2.4,3.2a5.15,5.15,0,0,0-3.49-1.54c-3.39,0-5.74,2.81-5.74,7s2.31,7,5.58,7a6.89,6.89,0,0,0,4.36-1.81l2,3.25a10.4,10.4,0,0,1-6.87,2.59C161.84,346.83,157.42,342.79,157.42,335.81Z" transform="translate(0 -0.01)"/><path class="cls-15" d="M178.9,339.22v-10h-3v-3.7l3.25-.22.59-5.74h4.1v5.74h5.36v3.92h-5.36v10c0,2.48,1,3.7,3,3.7a6.62,6.62,0,0,0,2.2-.48l.84,3.63a13.38,13.38,0,0,1-4.3.77C180.7,346.83,178.9,343.76,178.9,339.22Z" transform="translate(0 -0.01)"/><path class="cls-15" d="M202.48,334V318.3h5v16.11c0,6.1,2.28,8.1,5.67,8.1s5.8-2,5.8-8.1V318.3h4.78V334c0,9.2-4.08,12.8-10.58,12.8S202.48,343.23,202.48,334Z" transform="translate(0 -0.01)"/><path class="cls-15" d="M228.14,343.9l2.3-3.13a9.32,9.32,0,0,0,5.81,2.34c2.29,0,3.37-1.08,3.37-2.52,0-1.76-2.28-2.55-4.52-3.41-2.76-1-5.91-2.62-5.91-6.13s2.95-6.29,7.66-6.29a11.36,11.36,0,0,1,7,2.52l-2.26,3a8,8,0,0,0-4.61-1.83c-2.12,0-3.12,1-3.12,2.33,0,1.66,2.12,2.3,4.4,3.14,2.85,1.06,6,2.43,6,6.35,0,3.62-2.86,6.53-8.17,6.53A13.1,13.1,0,0,1,228.14,343.9Z" transform="translate(0 -0.01)"/></svg>