<svg id="Layer_1" data-name="Layer 1" xmlns="http://www.w3.org/2000/svg" viewBox="0 0 491.96 491.95"><defs><style>.cls-1{fill:#4fb2b2;}.cls-2{fill:#a3bf54;}</style></defs><path class="cls-1" d="M178.45,94.24A84.22,84.22,0,0,1,10,94.24h0a84.22,84.22,0,0,1,168.44,0ZM126.5,74c4.92,13.45.26,28.48-10.84,37.78-.32.27-.28.47.11.6q22.68,7.73,31.76,29.84c.13.33.32.37.57.1,33.78-37.34,18.7-98-27.87-115.51C76.09,10.15,27.61,39,22.53,86.33q-3.36,31.29,17.75,56c.28.33.5.29.66-.1Q50,120.08,72.72,112.35c.37-.13.4-.32.11-.57-17.61-14.93-17-42.33,2.77-55.13C94.51,44.44,118.88,53.12,126.5,74ZM116.39,85.2a22.14,22.14,0,1,0-22.14,22.14h0A22.14,22.14,0,0,0,116.39,85.2ZM70.18,126.42a37.41,37.41,0,0,0-19.46,24.9.7.7,0,0,0,.29.79c26.08,18.73,60.5,19.32,86.28.08a1.32,1.32,0,0,0,.47-1.46c-5.83-18.76-19.85-28.56-39.06-28.56C88.47,122.17,79.59,121.42,70.18,126.42Z" transform="translate(-10.01 -10.02)"/><path class="cls-1" d="M502,94.24a84.22,84.22,0,0,1-84.22,84.22h0a84.22,84.22,0,0,1-84.22-84.22h0a84.22,84.22,0,1,1,168.44,0ZM391.12,114.48q2.52-1.14,5.09-2.17c.33-.13.36-.3.09-.53-11.92-10.33-16.46-26.56-9.46-41.07A34.15,34.15,0,0,1,445.27,65c11,14.76,7.87,35-6.08,46.74-.31.26-.27.45.11.58Q462,120.09,471,142.18q.2.48.54.09Q492,119.07,489.8,89c-3.49-47.46-51.5-79-96.64-62.64-47.64,17.28-63.55,77.76-29.28,115.92.23.26.42.23.55-.1A50.17,50.17,0,0,1,391.12,114.48ZM439.9,85.2a22.14,22.14,0,1,0-44.28,0h0a22.14,22.14,0,0,0,22.14,22.14h0A22.14,22.14,0,0,0,439.9,85.2Zm-51.2,75.13q38.12,15.35,71.82-7.79a1.55,1.55,0,0,0,.66-1.89Q454.4,128.35,432.47,123c-5.23-1.28-11.41-.84-17.08-.89a54.4,54.4,0,0,0-12.76,1.05q-21.61,5.2-28.46,27.88a.71.71,0,0,0,.26.82A58.49,58.49,0,0,0,388.7,160.33Z" transform="translate(-10.01 -10.02)"/><path class="cls-1" d="M198,43.44q63.88-17.07,125.52,2.85c7.22,2.34,4.28,13.93-4.77,11.1A207.44,207.44,0,0,0,201.19,55a.36.36,0,0,0-.07.66q7.77,4.22,15.61,8.62a11.3,11.3,0,0,1,3.73,2.9c2.48,3.6-.7,9.27-4.9,9.13A13.79,13.79,0,0,1,210,74.2L181.74,58.57c-4.29-2.37-2.87-6.7-.82-10.4L195.63,21.6a11.21,11.21,0,0,1,2.85-3.7c3.49-2.43,9,.35,9.19,4.47.07,1.41-.54,3.25-1.83,5.5q-4.28,7.46-8.23,15.09C197.38,43.41,197.5,43.57,198,43.44Z" transform="translate(-10.01 -10.02)"/><path class="cls-2" d="M306.07,162.67c12.87,7.19,24.85,10.51,43.08,14.82,3.08.73,5.8,2.55,5.8,5.76q0,41.13,0,82.25c-.12,60-44.81,94.9-97.94,110.66a4.35,4.35,0,0,1-2.55,0c-52-16-97.38-50.38-97.4-110.14q0-41.5,0-83c0-3,2.86-4.8,5.73-5.49q18.53-4.45,24.27-6.38,14.26-4.78,31.38-15.71,17.51-11.16,35-22.24c1.76-1.11,4.63-.26,6.53.93C275.26,143.7,290.32,153.87,306.07,162.67Zm-84,4.39c-16.69,10.39-33.23,17.29-52.1,20.79a1.09,1.09,0,0,0-1,1.19q0,38.33,0,77c-.06,52.35,40.62,84.11,86.63,97.62a1.71,1.71,0,0,0,.95,0,164.78,164.78,0,0,0,43.71-20.55q42.88-28.31,42.73-80.31-.12-36.91,0-73.94a.63.63,0,0,0-.54-.69c-9.22-2.22-18.84-4.53-27.23-8-20.77-8.5-39.8-22-58.65-34.12a.89.89,0,0,0-1,0Q239,156.57,222.11,167.06Z" transform="translate(-10.01 -10.02)"/><path class="cls-2" d="M260,162.94c20.24,13.37,41.54,27,66.15,33.91,3.39,1,4.34,3.61,4.35,7.08q0,30.78.15,61.57c.17,45.31-34.55,72.42-73.92,85a3.52,3.52,0,0,1-2-.19c-35-11.14-67.47-34.45-72.57-73.58a181.21,181.21,0,0,1-.73-20q0-26.77,0-53.51c0-4,1.65-5.56,5.49-6.65,23.57-6.7,42.86-19,64-33.08C254.35,161.3,256.67,160.72,260,162.94Zm58,44.1c-22.81-7.14-41.74-19.47-61.65-32.18a.79.79,0,0,0-.86,0c-19.72,12.88-39,25-61.65,32.25a.56.56,0,0,0-.42.58q0,26,0,52.06,0,13.44,1.31,19.9c6,30.39,32.85,48.79,60.78,58.17a1.33,1.33,0,0,0,.88,0c33.6-11.32,61.93-33.72,62-72.33q.07-28.81.11-57.78A.72.72,0,0,0,318.05,207Z" transform="translate(-10.01 -10.02)"/><path class="cls-1" d="M455.54,198q-4.08,7.26-7.88,14.66a15.09,15.09,0,0,1-3.09,4.56c-3.27,2.65-9.16.22-9.51-4.07a9.49,9.49,0,0,1,1.43-5Q444.2,193.55,452,179c2.39-4.48,6.17-3.78,10.18-1.65q14.61,7.76,29.2,15.53c5.37,2.86,2.25,12.05-4.21,10.88a20.62,20.62,0,0,1-5.13-2.27q-6.93-3.84-14-7.39c-.43-.21-.57-.08-.44.37q18.65,65.47-1.86,129c-2.32,7.2-14,4.52-11-5.21Q473.34,258.45,456.1,198C456,197.56,455.78,197.53,455.54,198Z" transform="translate(-10.01 -10.02)"/><path class="cls-1" d="M44,315.94q-17.78-64.59,2.33-127.41c1.78-5.55,10.12-5.32,11.47.41a10.06,10.06,0,0,1-.56,5,207.18,207.18,0,0,0-1.69,118.69.24.24,0,0,0,.29.18.23.23,0,0,0,.16-.13q4.74-8.73,9.47-17.49c2.14-4,7.6-3.85,10.11-.34s.38,6.14-1.69,10q-7.27,13.47-14.59,26.92c-2.4,4.42-6.66,3.05-10.47,1Q35.17,325.4,21.58,318a9.34,9.34,0,0,1-3.19-2.51c-2.35-3.39,0-8.63,3.92-9.16q2.25-.3,5.63,1.53l15.6,8.43Q44.13,316.59,44,315.94Z" transform="translate(-10.01 -10.02)"/><path class="cls-2" d="M248.74,271.33q22.1-21.84,43.93-43.91c5.47-5.53,14.67,2.35,7.72,9.3q-23.91,23.92-47.83,47.84c-3.73,3.73-7.29,1.27-10.43-1.94q-10.24-10.49-20.43-21a9.31,9.31,0,0,1-2.76-4.49c-.76-4.25,4.23-8.14,8.1-6.41a16.79,16.79,0,0,1,4.12,3.46q8.33,8.64,16.78,17.16A.5.5,0,0,0,248.74,271.33Z" transform="translate(-10.01 -10.02)"/><path class="cls-1" d="M178.46,417.75A84.22,84.22,0,0,1,94.24,502h0a84.22,84.22,0,1,1,84.22-84.22Zm-65.05-37.34a29.91,29.91,0,0,1,9.34,9.37q12.28,20-1.14,39.32a44.56,44.56,0,0,1-5.82,6.12c-.33.32-.27.55.16.7q22.54,7.75,31.56,29.77c.14.33.33.37.57.1,41.43-46.71,8.21-120.3-53.83-120.29S-1.08,419.08,40.41,465.78q.35.39.54-.09,9.06-22,31.6-29.78c.45-.15.49-.39.13-.7Q62,426,60.42,412.83C56.84,383.55,88.94,364.49,113.41,380.41Zm3,28.3a22.14,22.14,0,1,0-22.14,22.14h0a22.14,22.14,0,0,0,22.14-22.14ZM50.94,475.47c26.28,19.86,60.21,18.58,86.31.36a1.28,1.28,0,0,0,.5-1.43q-5.94-20.11-24.64-26.69c-7.46-2.62-16.52-2.38-24.7-2.08-18.71.7-32.43,10.51-37.73,29A.75.75,0,0,0,50.94,475.47Z" transform="translate(-10.01 -10.02)"/><path class="cls-1" d="M502,417.74a84.22,84.22,0,1,1-84.22-84.22A84.22,84.22,0,0,1,502,417.74ZM390.12,388.59c14.5-20.58,47.67-17.89,58.42,5.23,6.85,14.72,3,30.86-9.38,41.5-.27.24-.24.42.1.53q22.78,7.78,31.84,30a.31.31,0,0,0,.39.17.27.27,0,0,0,.12-.09q16.71-19.26,18.18-43.95a72.09,72.09,0,0,0-71-76.43c-62.1-.66-97.1,72.93-54.81,120.22.22.25.39.22.52-.09q9-22,31.61-29.8c.48-.16.53-.41.16-.75a47.21,47.21,0,0,1-4.45-4.31C381.54,418.25,380.87,401.72,390.12,388.59Zm49.78,20.12a22.14,22.14,0,0,0-44.28,0h0a22.14,22.14,0,0,0,22.14,22.14h0a22.14,22.14,0,0,0,22.14-22.14Zm-65.26,66.92c26.51,19.72,60.24,18.44,86.42,0a.74.74,0,0,0,.29-.8q-6.66-23-29.13-28.29c-5.5-1.29-12.18-1-18.15-.91a50.69,50.69,0,0,0-13.5,1.6Q382.2,452.65,375,471.76a14.47,14.47,0,0,0-.69,3.1A.74.74,0,0,0,374.64,475.63Z" transform="translate(-10.01 -10.02)"/><path class="cls-1" d="M315.17,468.34a221.42,221.42,0,0,1-124.23-1.87,12.72,12.72,0,0,1-5-2.45c-3-3-1-9.43,3.41-9.94a14.77,14.77,0,0,1,5.25.91A207.31,207.31,0,0,0,312,456.69a.27.27,0,0,0,.19-.33.24.24,0,0,0-.13-.17q-7.57-4.15-15.28-8.35a13.5,13.5,0,0,1-4.21-3.08c-2.74-3.69.92-9.9,5.41-9.28a19.54,19.54,0,0,1,5.5,2.34q12.76,7,25.54,13.95c3.8,2.08,6.83,4.86,4.45,9.23q-8,14.65-16,29.26a10,10,0,0,1-2.87,3.59c-3.59,2.32-9-.55-9.07-4.67q0-2,1.93-5.54,4.13-7.38,8-14.85Q315.88,468.15,315.17,468.34Z" transform="translate(-10.01 -10.02)"/></svg>