<svg id="Layer_1" data-name="Layer 1" xmlns="http://www.w3.org/2000/svg" viewBox="0 0 512 452.36"><defs><style>.cls-1{fill:#4fb2b2;}</style></defs><path class="cls-1" d="M512,164.23v10.56c-2.14,36.28-18.32,68.72-43.39,94.61a.5.5,0,0,0,0,.8,100.07,100.07,0,0,1,9.19,9.95c24.34,33,1.85,78.47-39,80.19a.56.56,0,0,0-.59.59q-2,30.74-28.53,44.3a48.08,48.08,0,0,1-21.42,4.91.54.54,0,0,0-.59.56c-2.43,39-45.43,62.57-78.73,39.53-4.55-3.16-9-7.72-13.05-12a.54.54,0,0,0-.77,0h0q-11.25,11.17-22.39,22.39Q262.5,471,258,474c-32.12,21.33-75.17-1-76.4-39.79a.52.52,0,0,0-.57-.57c-26.24-1-46.4-20.7-47.93-47a.63.63,0,0,0-.59-.58c-36.08-1.37-57.14-39.38-38.62-71.32a.7.7,0,0,0-.13-.85Q69.33,290.9,45,267.88a179.37,179.37,0,0,1-13.93-14.34Q2.17,218.92,0,172.48V163.7C2.15,113.88,30.91,69.43,76.23,48.27a133.26,133.26,0,0,1,137.2,15c11.9,9.16,24,22,35.34,33.15a.5.5,0,0,0,.68,0Q261.77,84,274.17,71.68q18.24-18.14,45.17-30.33c54.41-24.63,116.35-8,155.82,35.47Q508.94,114,512,164.23ZM181.11,317.8c7.75-2.95,17,2,19.32,9.78q2.5,8.55-4,15.12-12.85,13-25.83,26a27.73,27.73,0,0,0-5.7,7.49,19.16,19.16,0,0,0,25.27,25.7,26.85,26.85,0,0,0,7.51-5.68l23.4-23.39q4.56-4.57,7-5.74c11.78-5.67,25.29,6.65,20.42,18.85q-1.22,3-5.81,7.67-11.57,11.61-23.15,23.19-4.8,4.82-6.22,7.68c-7.86,15.92,8.85,33.28,25.1,26q3.57-1.58,8.93-6.95,13.94-14,27.95-28a.73.73,0,0,0,.14-.85c-13.95-27.41-1.69-58.42,26.38-70.12.34-.14.41-.36.2-.67-27.38-41,12.88-93.21,59.65-75.31a.46.46,0,0,0,.68-.33c6.12-18,20-31,38.75-34.42q25.63-4.71,45.59,14.3a.42.42,0,0,0,.66,0,108.75,108.75,0,0,0,13.88-142c-30.94-43.53-89.35-58-137.36-34A102,102,0,0,0,297,91.29q-13.12,13.09-26.17,26.16a.35.35,0,0,0,0,.49h0q21.54,20.94,43.05,41.8,9.31,9,12.71,14.33c13.41,20.91,10.23,50.09-7.63,67.43a54.73,54.73,0,0,1-64.16,8.56,42.5,42.5,0,0,1-9.79-7.13l-18.44-18.43a1.39,1.39,0,0,0-2,0h0Q173.15,276,121.94,327.44c-16,16.09,8.37,39.26,24.15,23.39q13.49-13.56,27-27.05Q178,319,181.11,317.8ZM41.17,121.68c-19.69,39-12.9,89,19.24,119.41q26.93,25.47,53.76,50.9a.42.42,0,0,0,.66,0l88.85-88.8a31.36,31.36,0,0,1,35.82-5.86c7.47,3.64,15.35,13,21.79,19.46q5.5,5.55,9.22,7.45a23.72,23.72,0,0,0,32.14-31.64q-2-3.79-10.79-12.37L210.37,101q-10.17-9.89-14.76-13.47C145.21,48.14,70.16,64.3,41.17,121.68ZM424.25,268.35a19.38,19.38,0,0,0-27.4-.05h0l-1.05,1.05a19.39,19.39,0,0,0-.05,27.41h0l28,28.09a19.38,19.38,0,0,0,27.4,0h0l1.05-1a19.39,19.39,0,0,0,.05-27.41h0Zm-67.14,32.38a19.58,19.58,0,0,0-27.69-.05h0l-.79.79a19.57,19.57,0,0,0-.05,27.69l45.13,45.29a19.58,19.58,0,0,0,27.69.05h0l.79-.79a19.57,19.57,0,0,0,.05-27.69Zm-23.66,76a19.17,19.17,0,0,0-27.12,0L305.07,378a19.17,19.17,0,0,0,0,27.12l18.58,18.58a19.17,19.17,0,0,0,27.12,0l1.26-1.26a19.17,19.17,0,0,0,0-27.12Z" transform="translate(0 -29.91)"/></svg>