<svg id="Layer_1" data-name="Layer 1" xmlns="http://www.w3.org/2000/svg" viewBox="0 0 420.97 479.82"><defs><style>.cls-1,.cls-2,.cls-3,.cls-5{fill:none;}.cls-1{stroke:#7d614b;}.cls-1,.cls-2,.cls-3{stroke-width:2px;}.cls-2{stroke:#00326e;}.cls-3{stroke:#1c5a14;}.cls-4{fill:#4fb2b2;}.cls-6{fill:#a3bf54;}.cls-7{fill:#fefefe;}.cls-8{fill:#fff;}</style></defs><path class="cls-1" d="M94.07,339.53a31.37,31.37,0,0,1-6.63,6.64.48.48,0,0,0-.1.66.53.53,0,0,0,.14.12c7.49,4.47,16.35,6.42,9.69,17.78-4.76,8.11-8.19,13.72-3,22.82,7,12.16,16.21,18.19,29.62,21.31a89.12,89.12,0,0,0,12.92,2.23q17.76,1.31,35.51,2.69,18.44,1.43,21.64,19.42c3,16.79,3.19,34.24,3.36,51.3a.46.46,0,0,0,.51.51H397.27a.58.58,0,0,0,.58-.58.77.77,0,0,0,0-.15c-19.23-69.11-16-140,18.41-203.62,7.47-13.77,17.63-26.91,24.14-40,23.73-47.87,18.8-103-13.6-145.67C397.33,56.2,351.35,33.52,303.24,28.35A210.57,210.57,0,0,0,191.32,46.42c-52.77,24.09-96.25,73.5-100.51,133.16-.58,8.15,1.74,13.91,5.72,20.75,3.54,6.12,5.19,11.34.64,17.35q-20.72,27.4-40.26,56.77a1.4,1.4,0,0,0,.38,1.94l.21.11q11.94,5.38,24.41,10.85,9.14,4,7,13.6-1.55,7.1-6,21.1a.62.62,0,0,0,.3.79c6.43,3.9,17.7,7.23,10.79,16.69" transform="translate(-45.49 -16.18)"/><path class="cls-1" d="M207.85,79.15l.24-1.79a5.52,5.52,0,0,0-8.5-5.62c-2.93,1.87-3.55,11.69-4.43,18.83-.4,3.28.62,6.6,4.09,7.12q7.22,1.07,14.46,2.08a11,11,0,0,0,5-.13c4-1.48,4.3-7.58.52-9.74-1.25-.72-2.8-.71-4.29-1.08-.42-.11-.45-.28-.09-.52,46-30.6,105-27.11,147.35,8.18a5.36,5.36,0,0,0,8.88-4c.14-3.44-2.28-4.79-4.74-6.75-46.18-36.67-109.07-38.88-158-6.27-.39.25-.55.15-.49-.3" transform="translate(-45.49 -16.18)"/><path class="cls-1" d="M200.63,167.3c-5.43.11-10.07-.27-12.92,4.82-.83,1.49-1.25,3.81-1.26,7q0,11.58,0,23.15c0,8.9,6.91,10.17,14.13,10a.64.64,0,0,1,.69.51,83.49,83.49,0,0,0,7.82,18.78.7.7,0,0,1-.15.87c-7.24,6.27-8.49,11.4-1.39,18.52q8.07,8.09,16.18,16.13c6.13,6.08,11.86,2.45,16.85-3a.7.7,0,0,1,.87-.14,83.42,83.42,0,0,0,18.84,7.8.58.58,0,0,1,.46.64c-.06,3-.28,6.11.87,8.71q2.43,5.48,8.66,5.47l24.06,0c9.9,0,11.21-5.62,11.24-14.18a.59.59,0,0,1,.47-.61,84.12,84.12,0,0,0,18.74-7.76.67.67,0,0,1,.89.12c1.83,1.81,3.68,4,5.87,5q6.14,2.87,11.31-2.27,8.07-8,16.09-16.11c7.41-7.48,5-12-1.59-18.49a.57.57,0,0,1-.11-.75A84.33,84.33,0,0,0,365,212.69a.65.65,0,0,1,.73-.52c6.88.44,14-.84,14-9.42q.08-11.91,0-23.82c0-10.07-5.06-11.77-14-11.6a.7.7,0,0,1-.75-.55,85.54,85.54,0,0,0-7.71-18.58.82.82,0,0,1,.12-.95c1.62-1.72,3.74-3.4,4.73-5.32q3.36-6.52-2.46-12.36l-17.5-17.49c-5.68-5.67-11.8-1.64-16.5,3.48a.64.64,0,0,1-.86.13A83.83,83.83,0,0,0,306,107.91a.69.69,0,0,1-.5-.67c0-2.71.27-5.69-.67-8.07q-2.39-6-9.61-6-12.5-.07-25-.07-6.44,0-8.78,5.8c-1,2.47-.83,5.57-.78,8.36a.7.7,0,0,1-.51.69,83.8,83.8,0,0,0-18.73,7.77.7.7,0,0,1-.83-.12c-6.26-6.41-10.89-9-18.23-1.76q-8.32,8.22-16.57,16.52c-5.9,6-2.52,12.27,3.13,16.86a.58.58,0,0,1,.15.8,83.58,83.58,0,0,0-7.85,18.84.61.61,0,0,1-.62.48" transform="translate(-45.49 -16.18)"/><path class="cls-1" d="M182.38,258.3a.3.3,0,0,1-.55.18c-30.42-45.67-27.57-104.09,6.93-146.58a10.13,10.13,0,0,0,2.34-4.14c.69-3.88-3.91-7.42-7.43-5.82a12,12,0,0,0-3.68,3.37c-37.52,46.1-40.11,109.68-7.31,159.09.3.45.18.63-.35.52-9.65-2-10.48,9.56-3.84,10.56l14.34,2.14c3.73.56,7.58.08,8.21-4.11q1.11-7.32,2.2-14.66c1.57-10.55-11.36-10.28-10.86-.55" transform="translate(-45.49 -16.18)"/><path class="cls-1" d="M393.72,114.29a21.81,21.81,0,0,0,2.54.24c7.39.28,7.41-9.89,2-10.66q-9-1.28-17.3-2.21a5.22,5.22,0,0,0-5.75,4.47q-1,7.34-1.94,15.19c-1.17,9.65,10.87,9.76,10.93.6,0-.63.18-.69.53-.16a122.42,122.42,0,0,1-7.21,145.85c-2.68,3.29-3.86,7.05.22,9.63,2.85,1.8,5.64.47,7.71-2,38.41-46.4,41-110.32,7.92-160.38-.29-.44-.18-.62.35-.54" transform="translate(-45.49 -16.18)"/><path class="cls-1" d="M358.19,300.77c-1.36,5.33,3,10.26,8.2,7,2.9-1.8,3.73-12,4.75-19.37.56-4.08-1.53-6.06-5.49-6.72q-6.73-1.12-13.49-2.16c-10.65-1.65-10,11.63-.44,10.8a.34.34,0,0,1,.37.29.34.34,0,0,1-.16.32c-45.53,30.53-104.29,27.68-146.73-6.85a10.2,10.2,0,0,0-4-2.32c-3.87-.75-7.5,3.91-5.91,7.39a12.39,12.39,0,0,0,3.45,3.77,133.55,133.55,0,0,0,141.16,17.49,158.46,158.46,0,0,0,17.79-10.07c.51-.33.7-.19.55.4" transform="translate(-45.49 -16.18)"/><path class="cls-2" d="M220.59,150a83.15,83.15,0,0,0-9.36,22c-2.12,8.37-6.53,6-13.26,6.32a.5.5,0,0,0-.54.56l0,21.83a.44.44,0,0,0,.5.5c3.71,0,11.46-1.2,12.7,3.72a88.16,88.16,0,0,0,9.3,23.58,14.18,14.18,0,0,1,1.73,3.59c.68,3.39-4.65,7.51-6.87,9.81a.47.47,0,0,0,0,.74l15.38,15.37a.48.48,0,0,0,.73,0c2.93-2.56,5.75-7.09,9.61-6.76a13.71,13.71,0,0,1,4.67,2.06,76.3,76.3,0,0,0,20.85,8.47c7.38,1.8,5.65,7.35,5.67,13.13a.47.47,0,0,0,.53.53H294a.46.46,0,0,0,.53-.53c0-3.74-1.16-11.45,3.78-12.69a86.93,86.93,0,0,0,24-9.57c6.45-3.89,8.94,1.74,13,5.36a.48.48,0,0,0,.73,0l15.35-15.34a.5.5,0,0,0,0-.77c-2.7-2.86-8.94-7.21-6.24-11.73a87.17,87.17,0,0,0,10.18-24c1.61-6.63,7.94-4.94,12.94-4.94a.45.45,0,0,0,.51-.52V178.78c0-.33-.16-.5-.49-.49-4.33.07-11.46,1.58-12.87-4.53a79.05,79.05,0,0,0-9.2-22.82,9.67,9.67,0,0,1-1.64-4.16c-.09-3.39,4.56-6.74,6.82-9.11a.53.53,0,0,0,0-.83L336,121.47a.52.52,0,0,0-.85,0c-1.91,2-5.13,5.94-7.78,6.74a3.78,3.78,0,0,1-3.23-.13A79.52,79.52,0,0,0,300,117.66c-7.21-1.78-5.59-7.86-5.45-13a.51.51,0,0,0-.58-.6H272.26a.46.46,0,0,0-.52.51c-.07,4.64,1.56,11.33-4.74,12.9a92.92,92.92,0,0,0-19.58,7.33c-2.76,1.4-5.32,4.64-9.37,3-2.38-1-4.84-4.29-7.08-6.25a.57.57,0,0,0-.86,0l-15.27,15.28a.5.5,0,0,0,0,.79c3.19,3.37,9,6.81,5.76,12.35" transform="translate(-45.49 -16.18)"/><path class="cls-2" d="M337.73,189.79a54.61,54.61,0,0,0-54.61-54.61h0a54.61,54.61,0,1,0,54.61,54.61h0" transform="translate(-45.49 -16.18)"/><path class="cls-1" d="M251.46,196.16Q264.1,178.93,277.13,162a13.64,13.64,0,0,1,4.17-4c2.36-1.13,4.49-.44,6.4,2.09q13.28,17.59,26.6,35.17c2.14,2.83,3.59,6,.76,8.73-2.62,2.52-8.25,1.81-11.84,1.7a.51.51,0,0,0-.59.57v22c0,.33.15.42.45.29,11.81-5.2,20.29-18.09,22.72-29.86,8.58-41.68-41-69.25-72.37-40.9-22.19,20-17,57.12,9.75,70.71q.42.21.42-.27v-22a.48.48,0,0,0-.54-.55c-4.19,0-13.29,1.47-13.28-5.35a7.33,7.33,0,0,1,1.69-4.2" transform="translate(-45.49 -16.18)"/><path class="cls-3" d="M266.92,194.67c3.8-.52,7.63,1.24,7.63,5.59q0,15.84.08,31.73a.66.66,0,0,0,.59.7,45.64,45.64,0,0,0,15.94,0,.51.51,0,0,0,.47-.56q0-15.26,0-30.61c0-5,2.56-7.51,7.62-6.74a.42.42,0,0,0,.48-.35.41.41,0,0,0-.08-.32l-16.15-21.33c-.27-.35-.53-.35-.8,0L266.59,194.1q-.52.69.33.57" transform="translate(-45.49 -16.18)"/><path class="cls-4" d="M87.27,359.28c-3.59-2.25-9-4.55-11.29-7.3-5.31-6.31,2.68-12.21,7-16.28.28-.27.25-.49-.09-.68-5.48-3-12.68-5.9-10.53-13.72q3.14-11.43,6.34-22.57a1.25,1.25,0,0,0-.71-1.49Q65.6,292,53.85,286.68C43.5,282,43.72,275.32,49.31,266.79Q67.57,239,87.73,212.5c1.81-2.38.63-5.19-1-7.72-6.68-10.35-7.4-20.51-6.08-32.34,3.76-33.73,20.82-66.93,43.84-91.21q38.76-40.89,94-56.58c84.59-24,186.38,2.71,230.67,84.19,23.86,43.89,22.55,97.21-.95,141.13-6.06,11.33-15.1,22.88-21.61,35Q389.35,354,399.5,434.08a342.55,342.55,0,0,0,10.62,52.52c1.43,4.94.7,9.4-5.37,9.4H192.25c-4.43,0-5.71-3.5-5.66-7.52q.25-20.66-1.46-41.22a79,79,0,0,0-2.69-15.2c-1.48-5.23-5.6-6.9-10.43-7.38-13.4-1.33-34.31-1.54-51.74-5.58q-25.42-5.89-36.76-29.32c-5.1-10.55-2.12-20.26,4-29.61A.57.57,0,0,0,87.27,359.28Zm6.8-19.75a31.37,31.37,0,0,1-6.63,6.64.48.48,0,0,0-.1.66.53.53,0,0,0,.14.12c7.49,4.47,16.35,6.42,9.69,17.78-4.76,8.11-8.19,13.72-3,22.82,7,12.16,16.21,18.19,29.62,21.31a89.12,89.12,0,0,0,12.92,2.23q17.76,1.31,35.51,2.69,18.44,1.43,21.64,19.42c3,16.79,3.19,34.24,3.36,51.3a.46.46,0,0,0,.51.51H397.27a.58.58,0,0,0,.58-.58.77.77,0,0,0,0-.15c-19.23-69.11-16-140,18.41-203.62,7.47-13.77,17.63-26.91,24.14-40,23.73-47.87,18.8-103-13.6-145.67C397.33,56.2,351.35,33.52,303.24,28.35A210.57,210.57,0,0,0,191.32,46.42c-52.77,24.09-96.25,73.5-100.51,133.16-.58,8.15,1.74,13.91,5.72,20.75,3.54,6.12,5.19,11.34.64,17.35q-20.72,27.4-40.26,56.77a1.4,1.4,0,0,0,.38,1.94l.21.11q11.94,5.38,24.41,10.85,9.14,4,7,13.6-1.55,7.1-6,21.1a.62.62,0,0,0,.3.79C89.71,326.74,101,330.07,94.07,339.53Z" transform="translate(-45.49 -16.18)"/><path class="cls-5" d="M94.07,339.53c6.91-9.46-4.36-12.79-10.79-16.69a.62.62,0,0,1-.3-.79q4.42-14,6-21.1,2.08-9.6-7-13.6Q69.44,281.88,57.5,276.5a1.38,1.38,0,0,1-.7-1.84,2.12,2.12,0,0,1,.11-.21q19.55-29.37,40.26-56.77c4.55-6,2.9-11.23-.64-17.35-4-6.84-6.3-12.6-5.72-20.75,4.26-59.66,47.74-109.07,100.51-133.16A210.57,210.57,0,0,1,303.24,28.35c48.11,5.17,94.09,27.85,123.54,66.59,32.4,42.62,37.33,97.8,13.6,145.67-6.51,13.13-16.67,26.27-24.14,40-34.45,63.57-37.64,134.51-18.41,203.62a.58.58,0,0,1-.41.71l-.15,0H197.76a.46.46,0,0,1-.51-.51c-.17-17.06-.38-34.51-3.36-51.3q-3.19-18-21.64-19.42-17.75-1.38-35.51-2.69a89.12,89.12,0,0,1-12.92-2.23c-13.41-3.12-22.65-9.15-29.62-21.31-5.22-9.1-1.79-14.71,3-22.82,6.66-11.36-2.2-13.31-9.69-17.78a.46.46,0,0,1-.16-.64.41.41,0,0,1,.12-.14A31.37,31.37,0,0,0,94.07,339.53ZM207.85,79.15l.24-1.79a5.52,5.52,0,0,0-8.5-5.62c-2.93,1.87-3.55,11.69-4.43,18.83-.4,3.28.62,6.6,4.09,7.12q7.22,1.07,14.46,2.08a11,11,0,0,0,5-.13c4-1.48,4.3-7.58.52-9.74-1.25-.72-2.8-.71-4.29-1.08-.42-.11-.45-.28-.09-.52,46-30.6,105-27.11,147.35,8.18a5.36,5.36,0,0,0,8.88-4c.14-3.44-2.28-4.79-4.74-6.75-46.18-36.67-109.07-38.88-158-6.27C208,79.7,207.79,79.6,207.85,79.15Zm-7.22,88.15c-5.43.11-10.07-.27-12.92,4.82-.83,1.49-1.25,3.81-1.26,7q0,11.58,0,23.15c0,8.9,6.91,10.17,14.13,10a.64.64,0,0,1,.69.51,83.49,83.49,0,0,0,7.82,18.78.7.7,0,0,1-.15.87c-7.24,6.27-8.49,11.4-1.39,18.52q8.07,8.09,16.18,16.13c6.13,6.08,11.86,2.45,16.85-3a.7.7,0,0,1,.87-.14,83.42,83.42,0,0,0,18.84,7.8.58.58,0,0,1,.46.64c-.06,3-.28,6.11.87,8.71q2.43,5.48,8.66,5.47l24.06,0c9.9,0,11.21-5.62,11.24-14.18a.59.59,0,0,1,.47-.61,84.12,84.12,0,0,0,18.74-7.76.67.67,0,0,1,.89.12c1.83,1.81,3.68,4,5.87,5q6.14,2.87,11.31-2.27,8.07-8,16.09-16.11c7.41-7.48,5-12-1.59-18.49a.57.57,0,0,1-.11-.75A84.33,84.33,0,0,0,365,212.69a.65.65,0,0,1,.73-.52c6.88.44,14-.84,14-9.42q.08-11.91,0-23.82c0-10.07-5.06-11.77-14-11.6a.7.7,0,0,1-.75-.55,85.54,85.54,0,0,0-7.71-18.58.82.82,0,0,1,.12-.95c1.62-1.72,3.74-3.4,4.73-5.32q3.36-6.52-2.46-12.36l-17.5-17.49c-5.68-5.67-11.8-1.64-16.5,3.48a.64.64,0,0,1-.86.13A83.83,83.83,0,0,0,306,107.91a.69.69,0,0,1-.5-.67c0-2.71.27-5.69-.67-8.07q-2.39-6-9.61-6-12.5-.07-25-.07-6.44,0-8.78,5.8c-1,2.47-.83,5.57-.78,8.36a.7.7,0,0,1-.51.69,83.8,83.8,0,0,0-18.73,7.77.7.7,0,0,1-.83-.12c-6.26-6.41-10.89-9-18.23-1.76q-8.32,8.22-16.57,16.52c-5.9,6-2.52,12.27,3.13,16.86a.58.58,0,0,1,.15.8,83.58,83.58,0,0,0-7.85,18.84A.61.61,0,0,1,200.63,167.3Zm-18.25,91a.3.3,0,0,1-.55.18c-30.42-45.67-27.57-104.09,6.93-146.58a10.13,10.13,0,0,0,2.34-4.14c.69-3.88-3.91-7.42-7.43-5.82a12,12,0,0,0-3.68,3.37c-37.52,46.1-40.11,109.68-7.31,159.09.3.45.18.63-.35.52-9.65-2-10.48,9.56-3.84,10.56l14.34,2.14c3.73.56,7.58.08,8.21-4.11q1.11-7.32,2.2-14.66C194.81,248.3,181.88,248.57,182.38,258.3Zm211.34-144a21.81,21.81,0,0,0,2.54.24c7.39.28,7.41-9.89,2-10.66q-9-1.28-17.3-2.21a5.22,5.22,0,0,0-5.75,4.47q-1,7.34-1.94,15.19c-1.17,9.65,10.87,9.76,10.93.6,0-.63.18-.69.53-.16a122.42,122.42,0,0,1-7.21,145.85c-2.68,3.29-3.86,7.05.22,9.63,2.85,1.8,5.64.47,7.71-2,38.41-46.4,41-110.32,7.92-160.38C393.08,114.39,393.19,114.21,393.72,114.29ZM358.19,300.77c-1.36,5.33,3,10.26,8.2,7,2.9-1.8,3.73-12,4.75-19.37.56-4.08-1.53-6.06-5.49-6.72q-6.73-1.12-13.49-2.16c-10.65-1.65-10,11.63-.44,10.8a.34.34,0,0,1,.37.29.34.34,0,0,1-.16.32c-45.53,30.53-104.29,27.68-146.73-6.85a10.2,10.2,0,0,0-4-2.32c-3.87-.75-7.5,3.91-5.91,7.39a12.39,12.39,0,0,0,3.45,3.77,133.55,133.55,0,0,0,141.16,17.49,158.46,158.46,0,0,0,17.79-10.07C358.15,300,358.34,300.18,358.19,300.77Z" transform="translate(-45.49 -16.18)"/><path class="cls-6" d="M208.34,79.45c49-32.61,111.87-30.4,158,6.27,2.46,2,4.88,3.31,4.74,6.75a5.36,5.36,0,0,1-8.88,4C319.93,61.19,260.87,57.7,214.9,88.3c-.36.24-.33.41.09.52,1.49.37,3,.36,4.29,1.08,3.78,2.16,3.45,8.26-.52,9.74a11,11,0,0,1-5,.13q-7.25-1-14.46-2.08c-3.47-.52-4.49-3.84-4.09-7.12.88-7.14,1.5-17,4.43-18.83a5.52,5.52,0,0,1,8.5,5.62l-.24,1.79C207.79,79.6,208,79.7,208.34,79.45Z" transform="translate(-45.49 -16.18)"/><path class="cls-4" d="M201.25,166.82A83.58,83.58,0,0,1,209.1,148a.58.58,0,0,0-.15-.8c-5.65-4.59-9-10.9-3.13-16.86q8.25-8.29,16.57-16.52c7.34-7.25,12-4.65,18.23,1.76a.7.7,0,0,0,.83.12,83.8,83.8,0,0,1,18.73-7.77.7.7,0,0,0,.51-.69c-.05-2.79-.22-5.89.78-8.36q2.36-5.81,8.78-5.8,12.5,0,25,.07,7.23,0,9.61,6c.94,2.38.68,5.36.67,8.07a.69.69,0,0,0,.5.67,83.83,83.83,0,0,1,18.78,7.78.64.64,0,0,0,.86-.13c4.7-5.12,10.82-9.15,16.5-3.48l17.5,17.49q5.82,5.84,2.46,12.36c-1,1.92-3.11,3.6-4.73,5.32a.82.82,0,0,0-.12.95A85.54,85.54,0,0,1,365,166.78a.7.7,0,0,0,.75.55c9-.17,14,1.53,14,11.6q.08,11.91,0,23.82c-.06,8.58-7.16,9.86-14,9.42a.65.65,0,0,0-.73.52,84.33,84.33,0,0,1-7.79,18.78.57.57,0,0,0,.11.75c6.57,6.51,9,11,1.59,18.49q-8,8.09-16.09,16.11-5.18,5.15-11.31,2.27c-2.19-1-4-3.24-5.87-5a.67.67,0,0,0-.89-.12A84.12,84.12,0,0,1,306,271.68a.59.59,0,0,0-.47.61c0,8.56-1.34,14.16-11.24,14.18l-24.06,0q-6.22,0-8.66-5.47c-1.15-2.6-.93-5.75-.87-8.71a.58.58,0,0,0-.46-.64,83.42,83.42,0,0,1-18.84-7.8.7.7,0,0,0-.87.14c-5,5.48-10.72,9.11-16.85,3q-8.12-8-16.18-16.13c-7.1-7.12-5.85-12.25,1.39-18.52a.7.7,0,0,0,.15-.87,83.49,83.49,0,0,1-7.82-18.78.64.64,0,0,0-.69-.51c-7.22.18-14.12-1.09-14.13-10q0-11.56,0-23.15c0-3.17.43-5.49,1.26-7,2.85-5.09,7.49-4.71,12.92-4.82A.61.61,0,0,0,201.25,166.82ZM220.59,150a83.15,83.15,0,0,0-9.36,22c-2.12,8.37-6.53,6-13.26,6.32a.5.5,0,0,0-.54.56l0,21.83a.44.44,0,0,0,.5.5c3.71,0,11.46-1.2,12.7,3.72a88.16,88.16,0,0,0,9.3,23.58,14.18,14.18,0,0,1,1.73,3.59c.68,3.39-4.65,7.51-6.87,9.81a.47.47,0,0,0,0,.74l15.38,15.37a.48.48,0,0,0,.73,0c2.93-2.56,5.75-7.09,9.61-6.76a13.71,13.71,0,0,1,4.67,2.06,76.3,76.3,0,0,0,20.85,8.47c7.38,1.8,5.65,7.35,5.67,13.13a.47.47,0,0,0,.53.53H294a.46.46,0,0,0,.53-.53c0-3.74-1.16-11.45,3.78-12.69a86.93,86.93,0,0,0,24-9.57c6.45-3.89,8.94,1.74,13,5.36a.48.48,0,0,0,.73,0l15.35-15.34a.5.5,0,0,0,0-.77c-2.7-2.86-8.94-7.21-6.24-11.73a87.17,87.17,0,0,0,10.18-24c1.61-6.63,7.94-4.94,12.94-4.94a.45.45,0,0,0,.51-.52V178.78c0-.33-.16-.5-.49-.49-4.33.07-11.46,1.58-12.87-4.53a79.05,79.05,0,0,0-9.2-22.82,9.67,9.67,0,0,1-1.64-4.16c-.09-3.39,4.56-6.74,6.82-9.11a.53.53,0,0,0,0-.83L336,121.47a.52.52,0,0,0-.85,0c-1.91,2-5.13,5.94-7.78,6.74a3.78,3.78,0,0,1-3.23-.13A79.52,79.52,0,0,0,300,117.66c-7.21-1.78-5.59-7.86-5.45-13a.51.51,0,0,0-.58-.6H272.26a.46.46,0,0,0-.52.51c-.07,4.64,1.56,11.33-4.74,12.9a92.92,92.92,0,0,0-19.58,7.33c-2.76,1.4-5.32,4.64-9.37,3-2.38-1-4.84-4.29-7.08-6.25a.57.57,0,0,0-.86,0l-15.27,15.28a.5.5,0,0,0,0,.79C218,141,223.86,144.45,220.59,150Z" transform="translate(-45.49 -16.18)"/><path class="cls-6" d="M182.38,258.3c-.5-9.73,12.43-10,10.86.55q-1.1,7.33-2.2,14.66c-.63,4.19-4.48,4.67-8.21,4.11l-14.34-2.14c-6.64-1-5.81-12.57,3.84-10.56.53.11.65-.07.35-.52-32.8-49.41-30.21-113,7.31-159.09a12,12,0,0,1,3.68-3.37c3.52-1.6,8.12,1.94,7.43,5.82a10.13,10.13,0,0,1-2.34,4.14c-34.5,42.49-37.35,100.91-6.93,146.58a.31.31,0,0,0,.42.09A.31.31,0,0,0,182.38,258.3Z" transform="translate(-45.49 -16.18)"/><path class="cls-6" d="M393.37,114.83c33.12,50.06,30.49,114-7.92,160.38-2.07,2.5-4.86,3.83-7.71,2-4.08-2.58-2.9-6.34-.22-9.63a122.42,122.42,0,0,0,7.21-145.85c-.35-.53-.53-.47-.53.16-.06,9.16-12.1,9-10.93-.6q.94-7.84,1.94-15.19a5.22,5.22,0,0,1,5.75-4.47q8.32.95,17.3,2.21c5.41.77,5.39,10.94-2,10.66a21.81,21.81,0,0,1-2.54-.24C393.19,114.21,393.08,114.39,393.37,114.83Z" transform="translate(-45.49 -16.18)"/><path class="cls-7" d="M211.23,172a83.15,83.15,0,0,1,9.36-22c3.27-5.54-2.57-9-5.76-12.35a.5.5,0,0,1,0-.79l15.27-15.28a.57.57,0,0,1,.86,0c2.24,2,4.7,5.29,7.08,6.25,4,1.63,6.61-1.61,9.37-3A92.92,92.92,0,0,1,267,117.45c6.3-1.57,4.67-8.26,4.74-12.9a.46.46,0,0,1,.52-.51H294a.51.51,0,0,1,.58.6c-.14,5.15-1.76,11.23,5.45,13a79.52,79.52,0,0,1,24.16,10.43,3.78,3.78,0,0,0,3.23.13c2.65-.8,5.87-4.73,7.78-6.74a.52.52,0,0,1,.85,0l15.38,15.37a.53.53,0,0,1,0,.83c-2.26,2.37-6.91,5.72-6.82,9.11a9.67,9.67,0,0,0,1.64,4.16,79.05,79.05,0,0,1,9.2,22.82c1.41,6.11,8.54,4.6,12.87,4.53.33,0,.49.16.49.49v21.95a.45.45,0,0,1-.51.52c-5,0-11.33-1.69-12.94,4.94a87.17,87.17,0,0,1-10.18,24c-2.7,4.52,3.54,8.87,6.24,11.73a.5.5,0,0,1,0,.77l-15.35,15.34a.48.48,0,0,1-.73,0c-4.1-3.62-6.59-9.25-13-5.36a86.93,86.93,0,0,1-24,9.57c-4.94,1.24-3.8,8.95-3.78,12.69a.46.46,0,0,1-.53.53H272.25a.47.47,0,0,1-.53-.53c0-5.78,1.71-11.33-5.67-13.13a76.3,76.3,0,0,1-20.85-8.47,13.71,13.71,0,0,0-4.67-2.06c-3.86-.33-6.68,4.2-9.61,6.76a.48.48,0,0,1-.73,0l-15.38-15.37a.47.47,0,0,1,0-.74c2.22-2.3,7.55-6.42,6.87-9.81a14.18,14.18,0,0,0-1.73-3.59,88.16,88.16,0,0,1-9.3-23.58c-1.24-4.92-9-3.71-12.7-3.72a.44.44,0,0,1-.5-.5l0-21.83a.5.5,0,0,1,.54-.56C204.7,178,209.11,180.41,211.23,172Z" transform="translate(-45.49 -16.18)"/><path class="cls-7" d="M337.73,189.79a54.61,54.61,0,0,0-54.61-54.61h0a54.61,54.61,0,1,0,54.61,54.61Z" transform="translate(-45.49 -16.18)"/><path class="cls-4" d="M337.73,189.79a54.61,54.61,0,0,1-54.61,54.61h0a54.61,54.61,0,1,1,54.61-54.61Zm-86.27,6.37Q264.1,178.93,277.13,162a13.64,13.64,0,0,1,4.17-4c2.36-1.13,4.49-.44,6.4,2.09q13.28,17.59,26.6,35.17c2.14,2.83,3.59,6,.76,8.73-2.62,2.52-8.25,1.81-11.84,1.7a.51.51,0,0,0-.59.57v22c0,.33.15.42.45.29,11.81-5.2,20.29-18.09,22.72-29.86,8.58-41.68-41-69.25-72.37-40.9-22.19,20-17,57.12,9.75,70.71q.42.21.42-.27v-22a.48.48,0,0,0-.54-.55c-4.19,0-13.29,1.47-13.28-5.35A7.33,7.33,0,0,1,251.46,196.16Zm15.46-1.49c3.8-.52,7.63,1.24,7.63,5.59q0,15.84.08,31.73a.66.66,0,0,0,.59.7,45.64,45.64,0,0,0,15.94,0,.51.51,0,0,0,.47-.56q0-15.26,0-30.61c0-5,2.56-7.51,7.62-6.74a.42.42,0,0,0,.48-.35.41.41,0,0,0-.08-.32l-16.15-21.33c-.27-.35-.53-.35-.8,0L266.59,194.1Q266.07,194.79,266.92,194.67Z" transform="translate(-45.49 -16.18)"/><path class="cls-5" d="M249.77,200.36c0,6.82,9.09,5.31,13.28,5.35a.48.48,0,0,1,.54.55v22q0,.48-.42.27c-26.8-13.59-31.94-50.67-9.75-70.71,31.4-28.35,81-.78,72.37,40.9-2.43,11.77-10.91,24.66-22.72,29.86-.3.13-.45,0-.45-.29v-22a.51.51,0,0,1,.59-.57c3.59.11,9.22.82,11.84-1.7,2.83-2.73,1.38-5.9-.76-8.73Q301,177.65,287.7,160.06c-1.91-2.53-4-3.22-6.4-2.09a13.64,13.64,0,0,0-4.17,4q-13,17-25.67,34.18A7.33,7.33,0,0,0,249.77,200.36Z" transform="translate(-45.49 -16.18)"/><path class="cls-8" d="M274.55,200.26c0-4.35-3.83-6.11-7.63-5.59q-.85.12-.33-.57l16.14-21.34c.27-.35.53-.35.8,0l16.15,21.33a.42.42,0,0,1-.08.59.41.41,0,0,1-.32.08c-5.06-.77-7.61,1.77-7.62,6.74q0,15.34,0,30.61a.51.51,0,0,1-.47.56,45.64,45.64,0,0,1-15.94,0,.66.66,0,0,1-.59-.7Q274.55,216.11,274.55,200.26Z" transform="translate(-45.49 -16.18)"/><path class="cls-6" d="M357.64,300.37a158.46,158.46,0,0,1-17.79,10.07A133.55,133.55,0,0,1,198.69,293a12.39,12.39,0,0,1-3.45-3.77c-1.59-3.48,2-8.14,5.91-7.39a10.2,10.2,0,0,1,4,2.32c42.44,34.53,101.2,37.38,146.73,6.85a.32.32,0,0,0,.11-.45.32.32,0,0,0-.32-.16c-9.6.83-10.21-12.45.44-10.8q6.76,1,13.49,2.16c4,.66,6.05,2.64,5.49,6.72-1,7.4-1.85,17.57-4.75,19.37-5.22,3.23-9.56-1.7-8.2-7C358.34,300.18,358.15,300,357.64,300.37Z" transform="translate(-45.49 -16.18)"/></svg>