<svg id="Layer_1" data-name="Layer 1" xmlns="http://www.w3.org/2000/svg" viewBox="0 0 292.47 329.07"><defs><style>.cls-1{fill:#a3bf54;}.cls-2{fill:#343534;}.cls-3{fill:#4fb2b2;}</style></defs><rect class="cls-1" x="139.98" width="12.48" height="36.7" rx="6.01" transform="translate(-0.03 0.25) rotate(-0.1)"/><rect class="cls-1" x="49.63" y="37.32" width="12.34" height="36.84" rx="6.03" transform="translate(-23.06 55.78) rotate(-45)"/><rect class="cls-1" x="218.3" y="49.52" width="36.8" height="12.5" rx="6.1" transform="translate(29.9 183.71) rotate(-45)"/><path class="cls-2" d="M176.11,250.29l11.95-22.21c10.57-16.73,21.25-33.57,28.06-51.83C229,141.6,218.48,102.7,187.92,81a74.34,74.34,0,0,0-22.09-10.51,72.15,72.15,0,0,0-58.37,8.61l-11.77,9c-19.59,19.42-28.38,45.89-23.45,73,3.46,19.06,13.44,37.08,24.34,53.63l9.88,17a141,141,0,0,1,10,18.6q-3,8.19-9.2,5.38a7.64,7.64,0,0,1-3.3-3.26q-13.84-23.75-27.9-47.31c-8.09-13.55-14.76-30.28-16.83-46C53.77,117.9,76,76.86,115,61.26a84.82,84.82,0,0,1,68,2.38c29.95,14.3,49.09,44.7,50.91,77.62,1.37,24.85-7,46.07-19.52,67.18q-13.31,22.4-26.27,45a5.82,5.82,0,0,1-3.47,2.79Q178.21,257.82,176.11,250.29Z" transform="translate(0 0)"/><path class="cls-2" d="M144.67,92.85Q149,99,143,103.16L131.8,104.7q-18.89,5.14-25.67,22.85a31.7,31.7,0,0,0-2.24,9.93c-.19,3.05-.54,5-1,5.9q-1.75,3.08-6,3-5.76-1-5.74-6.58A48.48,48.48,0,0,1,98.16,115a46.34,46.34,0,0,1,10.44-12.14,47,47,0,0,1,23.56-11C135.81,91.14,140.75,90.1,144.67,92.85Z" transform="translate(0 0)"/><rect class="cls-1" x="12.11" y="127.9" width="12.48" height="36.7" rx="6.01" transform="translate(-127.93 164.34) rotate(-89.9)"/><rect class="cls-1" x="267.87" y="127.9" width="12.48" height="36.7" rx="6.01" transform="translate(127.39 420.1) rotate(-89.9)"/><rect class="cls-1" x="37.4" y="230.38" width="36.86" height="12.52" rx="6.1" transform="translate(-150.97 108.79) rotate(-45)"/><rect class="cls-1" x="230.51" y="218.2" width="12.34" height="36.82" rx="6.03" transform="translate(-97.98 236.66) rotate(-45)"/><rect class="cls-3" x="139.97" y="230.05" width="12.5" height="87.96" rx="6.14" transform="translate(-128.06 419.77) rotate(-89.9)"/><rect class="cls-3" x="102.25" y="292.26" width="87.96" height="12.5" rx="6.14"/><rect class="cls-3" x="113.24" y="316.52" width="65.98" height="12.5" rx="6.11" transform="translate(-0.56 0.26) rotate(-0.1)"/></svg>