<svg id="Layer_1" data-name="Layer 1" xmlns="http://www.w3.org/2000/svg" viewBox="0 0 497.44 484"><defs><style>.cls-1{fill:#4fb2b2;}.cls-2{fill:#a3bf54;}</style></defs><path class="cls-1" d="M464.25,366.63c7.64,5.35,13.15,12.5,8.64,22.13-1.89,4-2.18,6.61-1.62,11.38,1.76,14.84,4,30.89-14.71,35.4q-4,1-13.05.65a198.84,198.84,0,0,1-25.79-2.58q-17.87-3-35.52-7.1a1.67,1.67,0,0,0-.94.06c-10.86,4.17-14.34,17.28-14.4,27.94q-.11,21.51.3,43a.39.39,0,0,1-.44.46H213.79c-.34,0-.51-.17-.5-.5a227,227,0,0,0-14-81.25c-.14-.37,0-.55.38-.52q12.51.74,20.34,1.73c5.9.75,11.36-3.84,8.47-9.94q-12-25.27-24-50.6a.64.64,0,0,1,.16-.76c8.64-7.74,12.42-18,11.11-29.57-.49-4.34-.83-6.7,2.75-9.28a36.27,36.27,0,0,0,13.36-17.77.43.43,0,0,1,.64-.29q51,20.5,101,1.35a133.78,133.78,0,0,0,66.69-56.91c43.53-74.09,6-169.64-75.52-195.11-54.12-16.91-112.17,2.33-146.54,47.2a1,1,0,0,1-.88.44H137a.47.47,0,0,1-.48-.48.53.53,0,0,1,.08-.27q36.91-54.82,99.91-71.9a273.39,273.39,0,0,1,157.27,4.15c29.53,9.77,60.11,27.2,79,52.24a19.23,19.23,0,0,1,3.93,14.36c-.49,4.14-3.34,8.83-5.35,12.77A28.2,28.2,0,0,0,469,126.87q5.26,22.88,11.74,45.45c3.64,12.7,8.14,26.92,1.71,37.87-2.61,4.46-8,9.75-9.7,15.35-3.52,11.72,2.94,25.06,7.85,34.11q8.56,15.77,20,32.82c6.35,9.47,6.44,22-6.6,25.44-11.84,3.09-24.07,7.11-21.41,22,.61,3.43,3.27,8.47,3.39,12.07.31,8.62-5.14,10.7-11.67,13.91C463.88,366.13,463.86,366.36,464.25,366.63Z" transform="translate(-7.34 -14)"/><path class="cls-2" d="M247.09,217.11q12.65,17.25,22.6,33.94a2.76,2.76,0,0,1-3.18,4.13c-30.23-8.1-48.77-33.09-49.09-64.61a.58.58,0,0,1,.52-.64q41.54-8.09,59.69,29.38a.1.1,0,0,0,.13.05.11.11,0,0,0,.06-.1V179.79a.56.56,0,0,0-.54-.62A53.64,53.64,0,0,1,231.46,121c3.81-39.82,48.54-61.3,82.4-39.88,21.07,13.34,30.19,41,21.06,64.18-7.27,18.46-22.82,30.77-42.64,34a.48.48,0,0,0-.45.52v39.41c0,.55.12.57.35.08Q309.94,181.78,352,190a.38.38,0,0,1,.31.38c-.09,30.84-18.44,56.38-48.49,64.67-4,1.1-5.06-1.78-3.25-4.84a355.38,355.38,0,0,1,22.17-33.14.17.17,0,0,0,0-.25.19.19,0,0,0-.26,0,174.07,174.07,0,0,0-30.33,30.86,1.46,1.46,0,0,0-.3.85q-.09,15.25,0,30.48c.07,10.41-14,10-14,.77q0-15.67,0-31.24a1.43,1.43,0,0,0-.3-.89,174.47,174.47,0,0,0-30.21-30.75C246.69,216.38,246.61,216.46,247.09,217.11Zm30.77-61.55a37.3,37.3,0,0,0,.08,3.74,7,7,0,0,0,13.74.44,32.45,32.45,0,0,0,.19-3.93.66.66,0,0,1,.57-.65c9.82-1.9,16.64-9.89,15.19-19.89-1-6.9-8-12.51-13.95-14.21-3.56-1-15.18-3.19-17-6a2,2,0,0,1,.84-3,16,16,0,0,1,14.38-.06c1.68.81,2.42,2.86,3.89,3.91,4.46,3.2,11.25,0,11.08-5.59-.21-6.66-8.74-11.74-14.52-13a.59.59,0,0,1-.52-.68c.84-14-15.87-11.86-13.84-.06a.59.59,0,0,1-.45.66c-12.74,2.7-21,16.93-10.84,27.75a24.08,24.08,0,0,0,8.89,5.45c5.63,2.2,12.32,2.4,17.34,5.81a2.2,2.2,0,0,1,.59,3.06l-.17.21c-3.83,4.36-13.4,2.26-17.62-.41a1.67,1.67,0,0,1-.55-.6c-3.42-6.27-12.78-4.52-13.23,2.12-.5,7.39,9.25,12.89,15.35,14.21A.68.68,0,0,1,277.86,155.56Z" transform="translate(-7.34 -14)"/><rect class="cls-2" x="65.58" y="110.25" width="32.98" height="13.92" rx="6.67" transform="translate(-7.54 -13.85) rotate(-0.1)"/><rect class="cls-2" x="104.26" y="96.26" width="33.04" height="13.9" rx="6.66"/><rect class="cls-2" y="135.56" width="33" height="13.92" rx="6.66"/><rect class="cls-2" x="62.92" y="140.03" width="13.92" height="32.98" rx="6.66" transform="translate(-94.1 212.13) rotate(-89.9)"/><rect class="cls-2" x="92.06" y="135.56" width="33" height="13.92" rx="6.67"/><rect class="cls-2" x="7.35" y="188.9" width="32.98" height="13.92" rx="6.66" transform="translate(-7.68 -13.95) rotate(-0.1)"/><rect class="cls-2" x="46.05" y="174.91" width="32.98" height="13.9" rx="6.65"/><rect class="cls-2" x="108.95" y="179.37" width="13.92" height="32.98" rx="6.66" transform="translate(-87.49 297.43) rotate(-89.9)"/><path class="cls-1" d="M181.34,350.74c-7.51-.31-13.22-1.7-19.91,3.72-3.86,3.14-6.13,8.29-10.78,10.8q-11.78,6.35-22.33-1.16c-3.25-2.3-5.57-6.51-8.52-9.17-5.83-5.25-11.83-4.85-19.55-4.24a20,20,0,0,1-21.7-19.19c-.13-3.19,1-7.59.6-11a19.76,19.76,0,0,0-3.8-9.74c-2.73-3.67-7.66-5.95-10.3-9.92-6.49-9.79-4.45-21.25,5-28.55C77,267,80.26,261,79.12,252a38.36,38.36,0,0,1-.52-6.7,20.48,20.48,0,0,1,15.92-17.58c3.3-.68,7.14-.14,10.84.19,8.69.75,13.77-3.32,18.69-9.75,6.64-8.68,19.61-10.94,28.42-4.06,3,2.37,5.67,6.93,8.46,9.23q7,5.77,14.81,4.62,17-2.53,24.11,10.4c2.92,5.3,2.19,9.67,1.55,15.65a18.16,18.16,0,0,0,3.89,13.45c2.74,3.57,7.48,5.86,10.15,9.7,6.17,8.87,5,20.82-3.82,27.89a51,51,0,0,0-5.74,5,19.44,19.44,0,0,0-4.33,15.15,43.47,43.47,0,0,1,.45,6.64C201,342.89,192.77,351.21,181.34,350.74Zm1.44-61.66a42.46,42.46,0,1,0-42.46,42.46h0a42.46,42.46,0,0,0,42.46-42.46Z" transform="translate(-7.34 -14)"/><rect class="cls-2" x="32.74" y="218.73" width="13.94" height="32.96" rx="6.67" transform="translate(-202.91 260.51) rotate(-89.9)"/><path class="cls-1" d="M94,400.28l-23.25,2.09c-.54.05-.69-.18-.46-.67l17.88-37.76a.65.65,0,0,1,.81-.39,43.66,43.66,0,0,0,10.74,1.26c4.66,0,8.7-2.42,12.22,2.32a42,42,0,0,0,12.29,11.09.58.58,0,0,1,.28.78l-14.14,39.45a.38.38,0,0,1-.5.23.3.3,0,0,1-.17-.12L94.88,400.64A1,1,0,0,0,94,400.28Z" transform="translate(-7.34 -14)"/><path class="cls-1" d="M185.74,400.72l-14.87,17.93c-.31.38-.55.34-.72-.13L156,379a.54.54,0,0,1,.26-.72A42,42,0,0,0,169,366.54c1.62-2.21,4-2.56,6.82-2.17a41.88,41.88,0,0,0,15.69-.77.63.63,0,0,1,.79.38l18,38c.17.36,0,.52-.34.48l-23.47-2.07A.9.9,0,0,0,185.74,400.72Z" transform="translate(-7.34 -14)"/></svg>