<svg id="Layer_1" data-name="Layer 1" xmlns="http://www.w3.org/2000/svg" viewBox="0 0 500.43 419.87"><defs><style>.cls-1{fill:#4fb2b2;}.cls-2{fill:#a3bf54;}</style></defs><path class="cls-1" d="M345.73,390.6c4.8,12.64,1.59,25.41-8.8,34q-12.87,10.64-30.94,3.55c-.31-.12-.49,0-.53.32q-1.18,11.12-8.5,17.76-15.84,14.37-35.72,3.83-3-1.6-9.71-9c-.28-.31-.47-.26-.56.15q-4.58,19.57-22.69,23.92c-14.05,3.37-23.21-3.48-32.32-13.36a.65.65,0,0,0-.83-.1c-12,7.58-27,2.53-31.49-10.94a.42.42,0,0,0-.66-.27c-18.11,8.94-35.58-7.24-29.61-26.2a.43.43,0,0,0-.34-.62c-12.28-3.54-17.45-15.08-14.34-27a.46.46,0,0,0-.32-.61q-18.48-6.52-15.26-26.4a1,1,0,0,0-.29-.91l-6.12-6.15c-.31-.3-.51-.24-.62.17C92.82,365.57,84.86,372.37,71,368.51L21.39,354.69c-8.55-2.38-14.69-6.82-15.48-15.91q-.35-4,2.19-12.82,19.78-68.58,39.54-137.15c2.46-8.54,6.84-14.64,15.93-15.42q3.95-.33,12.66,2.11,22.09,6.19,44.2,12.28,7.35,2,10.39,4.34,7.78,5.94,6.58,17.25c0,.32.11.45.42.4a348.46,348.46,0,0,1,46.47-5c.46,0,.57-.23.34-.63a136.09,136.09,0,0,1-17.37-53.94q-.67-6.53-.7-20,0-22.63-.07-45.26c0-3.53,1.76-5.24,5.06-6.53L254,46.4a6.52,6.52,0,0,1,4.68.28Q323.87,72,341.23,78.81c3.26,1.28,3.93,3.67,3.95,7.16q.15,23.77,0,47.53a181.34,181.34,0,0,1-1,20,134.56,134.56,0,0,1-21.62,58.12.46.46,0,0,0,.21.76,158.09,158.09,0,0,1,19.85,11.3.94.94,0,0,0,.89.09l30.75-13.27a.64.64,0,0,0,.43-.73q-1.19-11.64,6.44-17.45,3.33-2.53,14.36-5.56,21.4-5.85,42.77-11.87c8.74-2.46,16.39-2.35,22.1,4.9q2.42,3.08,4.72,11.06l39.66,137.65q1.88,6.51,1.52,10.22c-.87,9-6.61,13.48-15.06,15.87q-25.24,7.14-50.56,14.05c-10.75,2.94-19.77-.9-23.55-11.85-.11-.33-.31-.41-.62-.25A117.86,117.86,0,0,1,372.25,370a.75.75,0,0,0-.68.51q-6.9,17.28-25.56,19.61C345.72,390.17,345.63,390.33,345.73,390.6ZM195.59,104.5a5.93,5.93,0,0,1,3.89-5.81q27.14-10.55,54.3-21a6,6,0,0,1,4.47-.09q11.14,4.28,52.4,20.37c3.6,1.41,5.68,2.61,5.71,6.58q.08,16,0,32a106.3,106.3,0,0,1-21.48,64.29c-.19.26-.13.44.17.55l16.33,5.84a.6.6,0,0,0,.76-.25A122.92,122.92,0,0,0,334,136.24q.08-23.78-.08-47.64a.62.62,0,0,0-.43-.61L256.55,58.1a1.21,1.21,0,0,0-1,0L178.53,88a.58.58,0,0,0-.4.59q-.31,40.25,0,50.9a122.44,122.44,0,0,0,19.74,64.29,1,1,0,0,0,.77.48,31.35,31.35,0,0,0,6,.11c3.77-.3,7.44-3.1,11-4.74.33-.15.39-.37.18-.67a106.93,106.93,0,0,1-18.91-46A146,146,0,0,1,195.6,133Q195.46,118.75,195.59,104.5Zm60.06-15.37-48.09,18.74a.73.73,0,0,0-.51.74q-.26,25.17,0,31.9,1.07,29.87,20.11,54.42a.71.71,0,0,0,.79.27c18.93-4.89,36.26-2.11,54.16,2.63a.65.65,0,0,0,.68-.22,94.53,94.53,0,0,0,22.16-61.11q.1-13.87.1-27.84a.79.79,0,0,0-.55-.8l-48-18.73A1.19,1.19,0,0,0,255.65,89.13ZM17.33,335.05a6.37,6.37,0,0,0,4.35,7.89h.05L76,358.14a6.38,6.38,0,0,0,7.84-4.37l42.05-145.89a6.37,6.37,0,0,0-4.35-7.89h0L67.21,184.79a6.38,6.38,0,0,0-7.84,4.37Zm410.8,18.62a6.36,6.36,0,0,0,7.81,4.37L490.27,343a6.36,6.36,0,0,0,4.43-7.83l0-.06L452.62,189.15a6.36,6.36,0,0,0-7.81-4.36L390.5,199.88a6.36,6.36,0,0,0-4.43,7.83l0,.06ZM308.85,218.59a214.52,214.52,0,0,0-28.13-9.32c-17.15-4.4-33.17-7.74-49.87-3-25.21,7.13-43.2,27-56.21,48.7q-5.2,8.67-5.87,14.44c-1.81,15.46,14.77,27.1,28.89,20.07q3.71-1.84,10-8.74,9-9.89,18.14-19.72,6.73-7.29,11.17-10c12.54-7.68,31.21-6.89,42.18,4.08q41.9,41.87,83.75,83.75,8.6,8.6,10.13,19a.49.49,0,0,0,.61.46,105.28,105.28,0,0,0,39.48-13.11.83.83,0,0,0,.39-.95L378.18,221.56a.29.29,0,0,0-.36-.2h0q-16.28,7-32.61,14a6.56,6.56,0,0,1-6.77-.83A148.52,148.52,0,0,0,308.85,218.59Zm-103,172.54c18.64.6,27.88,22.44,14.36,35.82q-8.05,8-16,16.06a.45.45,0,0,0,0,.7,50.38,50.38,0,0,0,8.35,8c6.8,4.64,17.71,3.13,23.08-3.57a17.73,17.73,0,0,0-.17-22.62,11.35,11.35,0,0,1-2.37-3.84c-1.24-5.31,5.36-9.36,9.24-5.51q9.62,9.54,19.17,19.17a29.38,29.38,0,0,0,8,6.17c14.13,6.41,28.55-6.9,23.83-21.64-1.25-3.89-4.46-7.1-7.39-10q-19.68-19.61-39.29-39.27c-2.86-2.87-4.23-6.71-.85-9.59q3.85-3.28,7.84.66,25.41,25.23,50.78,50.5,4.69,4.68,7.74,6a17.57,17.57,0,0,0,24.16-13.36q1.55-8.75-5.37-15.7-25.25-25.43-50.59-50.76a13.55,13.55,0,0,1-3.43-4.63c-1.22-3.75,3-8,7-6.89a8.86,8.86,0,0,1,3.49,2.41q19.25,19.27,38.55,38.5,7,7,8,7.71a17.48,17.48,0,0,0,27.38-11.37c.81-4.79-.35-11.2-3.77-14.61L278,269.86q-8-8-12.32-10.18c-11.32-5.73-21.92-1.45-30.06,7.44q-10.81,11.81-21.69,23.54a46.3,46.3,0,0,1-7.55,6.91c-17.65,11.7-40.54,3.52-47.78-16.29-3.56-9.73-1.15-18.81,4-28.24a153.14,153.14,0,0,1,28-36.65q.38-.37-.15-.36a331.32,331.32,0,0,0-56,6,1.06,1.06,0,0,0-.83.76l-33.51,116.3a.91.91,0,0,0,.25,1l9.18,9.14a.47.47,0,0,0,.75,0q7.45-7.49,15-14.95a26.86,26.86,0,0,1,7.31-5.47c14.1-6.42,29.32,3.39,29.73,18.78a.49.49,0,0,0,.49.53q19.13,1.85,21.15,20.89a.64.64,0,0,0,.63.63q18.89,2.09,20.76,21A.5.5,0,0,0,205.84,391.13Zm-57.69-37a9.18,9.18,0,0,0-.05-13l-.42-.42a9.19,9.19,0,0,0-13,0h0l-18.17,18.3a9.18,9.18,0,0,0,0,13h0l.42.42a9.19,9.19,0,0,0,13,0Zm21.51,21.5a9.18,9.18,0,0,0,0-13l-.34-.34a9.19,9.19,0,0,0-13,0L131.7,387a9.18,9.18,0,0,0,0,13h0l.34.34a9.19,9.19,0,0,0,13,0h0Zm21.17,8.23a9.25,9.25,0,0,0-13.06,0h0l-31.62,31.62a9.25,9.25,0,0,0,0,13.06h0l.28.28a9.25,9.25,0,0,0,13.06,0h0l31.62-31.62a9.25,9.25,0,0,0,0-13.06h0Zm21.5,21.36a9.22,9.22,0,0,0-13,0l-22.58,22.5a9.22,9.22,0,0,0,0,13h0l.35.35a9.22,9.22,0,0,0,13,0h0l22.58-22.5a9.22,9.22,0,0,0,0-13h0Z" transform="translate(-5.87 -46.08)"/><path class="cls-2" d="M245.35,159.49q17-16.69,33.71-33.68c5-5.11,14.12,2.12,7,9.25L249.3,171.8c-3.5,3.51-6.77,1.9-9.89-1.23q-6.6-6.63-13.2-13.22c-7-7,1.49-14.77,7.57-8.63l10.68,10.77A.55.55,0,0,0,245.35,159.49Z" transform="translate(-5.87 -46.08)"/><path class="cls-2" d="M104.19,225A19.07,19.07,0,1,1,85.12,206h0A19.07,19.07,0,0,1,104.19,225Zm-11.44-.09a7.7,7.7,0,1,0-15.4,0h0a7.7,7.7,0,0,0,7.7,7.7h0a7.7,7.7,0,0,0,7.7-7.7Z" transform="translate(-5.87 -46.08)"/><path class="cls-2" d="M445.55,225a19.05,19.05,0,1,1-19.05-19A19.05,19.05,0,0,1,445.55,225Zm-11.33-.06a7.66,7.66,0,0,0-7.66-7.66h0a7.66,7.66,0,0,0-7.66,7.66h0a7.66,7.66,0,0,0,7.66,7.66h0a7.66,7.66,0,0,0,7.66-7.66Z" transform="translate(-5.87 -46.08)"/></svg>