<svg id="Layer_1" data-name="Layer 1" xmlns="http://www.w3.org/2000/svg" viewBox="0 0 512 512"><defs><style>.cls-1{fill:#4fb2b2;}.cls-2{fill:#a3bf54;}</style></defs><path class="cls-1" d="M334.87,0h2.91q14.85.87,23.34,12.12,45,59.66,89.85,119.41A29.42,29.42,0,0,1,457,154c-3.09,22.26-29.68,33.59-47.82,19.59q-3.4-2.62-9.8-11.11-43.08-57.1-86.1-114.23A30.06,30.06,0,0,1,313,12.32Q320.47,1.92,334.87,0Z"/><path class="cls-1" d="M386.57,196.19a167.61,167.61,0,0,1-119,89.69.91.91,0,0,1-.88-.34L162.35,147.1a.9.9,0,0,1-.1-1c22.18-46.11,68.62-80.89,119-89.66a.89.89,0,0,1,.93.37L386.49,195.3A.8.8,0,0,1,386.57,196.19Z"/><rect class="cls-1" x="136.62" y="147.58" width="59.88" height="209.6" rx="29.35" transform="translate(-118.35 151.06) rotate(-37)"/><path class="cls-1" d="M330.7,294.58a180.69,180.69,0,0,0,46.81-35.29.58.58,0,0,1,.82,0l.06.07,18.92,25.12a.46.46,0,0,1-.1.73l-47,35.42a.53.53,0,0,1-.83-.11l-18.86-25A.52.52,0,0,1,330.7,294.58Z"/><path class="cls-1" d="M512,444.56v2.77c-1.56,28.43-36.52,40.14-54.05,17q-45-59.41-89.89-119a.46.46,0,0,1,.1-.73l47-35.46a.52.52,0,0,1,.82.12q45,59.65,89.88,119.27A32.4,32.4,0,0,1,512,444.56Z"/><path class="cls-2" d="M288.18,512H13.68Q1.88,510,0,498.19V479.67q3.33-26,29.5-28.8a.5.5,0,0,0,.5-.55q0-8.07,0-16.33c.09-19.95,12.8-37.49,32.09-42.48Q67.8,390,82,390q73.13-.06,146.26.14c24.12.07,42.74,18,43.66,42.08q.15,3.83.07,18.27a.52.52,0,0,0,.57.59c14.65.6,26,10.22,28.78,24.26a62.08,62.08,0,0,1,.66,10.79c0,4.62.47,10.44-.54,14.4Q299,510.18,288.18,512Z"/></svg>