<svg id="Layer_1" data-name="Layer 1" xmlns="http://www.w3.org/2000/svg" viewBox="0 0 512 512"><defs><style>.cls-1{fill:#4fb2b2;}.cls-2{fill:#a3bf54;}</style></defs><path class="cls-1" d="M246.08,0H266c6.59,1.73,7.9,9.85,10,15.3a.92.92,0,0,0,.62.55,79.69,79.69,0,0,1,20.58,8.55.83.83,0,0,0,.82.05c5.45-2.4,13.11-7.93,18.54-2.8q6.5,6.12,12.77,12.46c5,5.07-.69,13.49-2.89,18.78a.92.92,0,0,0,.06.88A79.89,79.89,0,0,1,335,74.24a1,1,0,0,0,.6.66c5.77,2.08,15,3.8,15.16,11.34q.12,8.16,0,16.31c0,3.61-1.24,7-4.56,8.28L335.63,115a1,1,0,0,0-.63.72,81.07,81.07,0,0,1-8.46,20.39,1,1,0,0,0-.06.94c2.37,5.43,7.84,13.31,2.93,18.62q-2.67,2.88-11.55,11.54c-2.79,2.71-6,4.33-9.53,2.72q-5.08-2.29-10.18-4.53a1,1,0,0,0-.93.05,79.93,79.93,0,0,1-20.49,8.49,1,1,0,0,0-.74.67q-2.1,5.64-4.3,11.07c-1.24,3.08-5,4.09-8.34,4.09l-15.85,0c-7.82,0-9.29-9.55-11.58-15.29a1,1,0,0,0-.66-.58,80.42,80.42,0,0,1-20.48-8.51,1,1,0,0,0-.92,0c-4.9,2.27-13.72,7.78-18.38,3.17q-6.42-6.35-12.79-12.74c-5.18-5.19.46-13.41,2.8-18.79a1,1,0,0,0-.06-.94A79.44,79.44,0,0,1,177,115.74a1,1,0,0,0-.66-.76c-6.56-2.7-15.27-4-15.26-11.47q0-8.82,0-17.63c0-6.93,10-9,15.29-11a.9.9,0,0,0,.58-.65,78.85,78.85,0,0,1,8.48-20.49,1,1,0,0,0,.06-.94c-2.31-5.27-7.95-13.65-2.91-18.7q6.19-6.2,12.44-12.32c3-2.95,6-2.93,9.89-1.27q4.53,1.91,9,4a.83.83,0,0,0,.82,0,78.42,78.42,0,0,1,20.46-8.5,1.06,1.06,0,0,0,.73-.64C238.05,9.85,239.41,1.55,246.08,0ZM177.59,98.28c4.55,1.77,12.59,3.51,13.79,9a69.87,69.87,0,0,0,9.77,23.87c3.64,5.48-.7,11.69-3,16.81a.89.89,0,0,0,.18,1l3.77,3.73a.66.66,0,0,0,.78.14c3.92-1.77,11.64-6.26,15.65-3.76a77.46,77.46,0,0,0,24,10.29c7,1.58,8,8.36,10.07,14a.72.72,0,0,0,.68.47h5.48a.63.63,0,0,0,.64-.45c1.38-3.67,3.88-12.79,8.1-13.61a70,70,0,0,0,24.66-9.85c5.84-3.74,11.64.52,17,2.89a.63.63,0,0,0,.76-.14l3.79-3.78a.81.81,0,0,0,.17-.91c-1.66-3.7-6.3-11.76-3.82-15.43a69.63,69.63,0,0,0,10.42-24.31c1.41-6.47,7.34-7.48,14-9.83a.72.72,0,0,0,.49-.68V92.26a.66.66,0,0,0-.45-.67c-3.69-1.47-12.79-3.9-13.64-8.22A71,71,0,0,0,311,58.75c-3.61-5.66-.05-10.56,2.88-16.82a.71.71,0,0,0-.15-.87l-3.76-3.81a.76.76,0,0,0-.93-.17c-4.64,2.2-11.5,6.39-16.33,3.26a70.79,70.79,0,0,0-23.86-10c-6.22-1.32-7.58-9-9.46-13.9a.63.63,0,0,0-.64-.45h-5.44a.64.64,0,0,0-.64.44c-1.92,4.95-3.35,12.68-9.42,14a68.6,68.6,0,0,0-22.54,9c-6.56,4.13-10.49,1-17.69-2.42a.73.73,0,0,0-.83.14L198.28,41a.81.81,0,0,0-.16.93c2.38,5,6.22,11.59,3.82,15.43A78.07,78.07,0,0,0,191.71,81c-1.75,7.54-8,8.13-14.15,10.51a.71.71,0,0,0-.49.72V97.5A.78.78,0,0,0,177.59,98.28Z"/><path class="cls-2" d="M304.77,94.9A48.79,48.79,0,1,1,256,46.11,48.78,48.78,0,0,1,304.77,94.9Zm-16,0a32.82,32.82,0,1,0-65.64,0h0A32.81,32.81,0,0,0,256,127.72h0A32.81,32.81,0,0,0,288.81,94.9Z"/><path class="cls-1" d="M512,406.08v99.16a8.68,8.68,0,0,1-6.85,6.76h-2.43q-6.72-1.9-6.72-9.75V413.73q0-8.24-.81-11.4c-2.94-11.51-16-18.84-27-22a203.52,203.52,0,0,0-102.3-3.13.55.55,0,0,0-.49.6q.22,62.15,0,124.26c0,5.39-1.51,8.72-6.84,9.95h-2.36q-6.76-1.81-6.77-8.25,0-59,0-118a48.32,48.32,0,0,0-.73-10c-4.14-17.75-26-24.85-41.81-28.38A231,231,0,0,0,206,347c-14.65,3.22-34.12,9.37-41.3,24.23a19.45,19.45,0,0,0-2.22,8.3q-.06,62.13,0,124.25,0,6.62-7,8.25H153.2c-7.45-2.07-6.73-7.05-6.73-14.34q0-59.93,0-119.89a.56.56,0,0,0-.49-.61,205.66,205.66,0,0,0-88.34-.48C41.57,380.11,16,387.4,16,408.24q0,46.45,0,92.88c0,5.76-1,9.48-6.86,10.88H6.74A8.64,8.64,0,0,1,0,505.18V405.67c2.24-23.34,22-36.48,43-42A239.38,239.38,0,0,1,81.56,357c.57,0,.6-.21.11-.5A54.71,54.71,0,0,1,61.55,337c-22.35-37.7-10-93.94,44.18-90,45.56,3.29,53.62,51.66,37.07,85.31A56.22,56.22,0,0,1,120,356.56c-.46.27-.42.43.11.48a236.57,236.57,0,0,1,30.86,4.82.66.66,0,0,0,.81-.35c7.65-13.13,21.29-21.45,35.82-25.88a231.05,231.05,0,0,1,50.36-9.43c.43,0,.45-.15.07-.34a60.47,60.47,0,0,1-27.6-28.27c-16-33.24-10.26-82.85,33.74-90.42,31.05-5.35,58.35,8.78,64.23,41,5.4,29.65-6.19,63.35-34.47,77.7-.56.29-.53.45.1.49a215.16,215.16,0,0,1,54.41,10.44,60.65,60.65,0,0,1,32,24.68.69.69,0,0,0,.78.32,238.57,238.57,0,0,1,31-4.83.2.2,0,0,0,.18-.2.21.21,0,0,0-.11-.16C365.56,342,354.63,304.28,365,276.4q9.8-26.28,40.5-29.31c24.22-2.39,47.57,9.75,53.35,34.56,6.37,27.33-3,60.74-28.71,74.81a.33.33,0,0,0-.13.45.32.32,0,0,0,.27.17A183.87,183.87,0,0,1,471,364.5C491.35,370.62,510.18,382.66,512,406.08ZM288.19,288.85c6.56-15.4,8.64-38.42-1.19-52.85-8.5-12.46-25.36-15.51-39.48-13.12-28,4.74-32.83,31.39-27.47,54.8,3.3,14.39,13.69,31.45,28.7,35.08C266.54,317.06,281.53,304.5,288.19,288.85ZM83.69,266.42c-28.38,13.69-18.07,70.2,10.71,77.86,18.25,4.86,32.1-10.47,37.23-26.57,5.19-16.3,5.43-40-11.3-50C110.12,261.64,94.5,261.21,83.69,266.42ZM439.31,324c8.65-18.86,9.88-51.12-14.88-59.21a45.06,45.06,0,0,0-26.76.1q-18.1,6.19-20.13,27.34c-1.38,14.3,2.14,30.45,11.55,41.65C406.08,354.14,429.61,345.17,439.31,324Z"/><path class="cls-1" d="M198.62,512h-2.37c-5.6-1.41-6.76-4.92-6.76-10.54q0-42.76,0-85.5a12.46,12.46,0,0,1,1-5.74,8,8,0,0,1,14.36,1,13.83,13.83,0,0,1,.59,4.67q0,43.81,0,87.63Q205.48,510.22,198.62,512Z"/><path class="cls-1" d="M315.61,512h-2.37q-6.76-1.89-6.75-9.5.06-42.39,0-84.78a20.43,20.43,0,0,1,.79-6.83c2.59-6.44,11.79-6.25,14.56.07a10.81,10.81,0,0,1,.65,4.21q0,43.13,0,86.25C322.49,507.08,321.3,510.66,315.61,512Z"/><path class="cls-1" d="M48.44,512H46.17q-6.86-1.78-6.84-9.5,0-30.37,0-60.74a22.44,22.44,0,0,1,.73-6.94c3.12-8.41,15.31-5.62,15.3,3.68q0,31.77,0,63.54C55.29,507.42,53.74,510.79,48.44,512Z"/><path class="cls-1" d="M465.66,512H463.4c-7.31-2-6.74-6.9-6.75-14q0-29.14,0-58.3a12.14,12.14,0,0,1,1.26-6.11,7.9,7.9,0,0,1,12.36-1.34c2.45,2.43,2.32,5,2.32,8.43q.06,30.68,0,61.36C472.59,507.4,471,510.86,465.66,512Z"/></svg>