<svg id="Layer_1" data-name="Layer 1" xmlns="http://www.w3.org/2000/svg" viewBox="0 0 498.91 499.15"><defs><style>.cls-1{fill:#a3bf54;}.cls-2{fill:#343534;}.cls-3{fill:#4fb2b2;}</style></defs><path class="cls-1" d="M498.91,58.49v5.75l-43.37,44.62a2.06,2.06,0,0,1-1.48.62l-47.36.17a1.29,1.29,0,0,0-1,.4q-10.89,10.58-21.64,21.28Q293.63,221.45,236.26,278c-4.61,4.54-12.19,2.48-15.19-2.63q-3.21-5.47-.39-10a84.62,84.62,0,0,1,6.26-6.58Q309.37,176.56,391.74,95a2.65,2.65,0,0,0,.78-1.88V46.41a2.61,2.61,0,0,1,.74-1.81q20.65-21,40.65-41.55c2.86-2.93,6.22-4.77,9-.67a1.68,1.68,0,0,1,.3,1V41.15a.64.64,0,0,0,.64.64h0a.64.64,0,0,0,.54-.28c2.95-4.28,8-6.34,13-4.28a9.76,9.76,0,0,1,5.93,6.65c1.57,5.47-1.33,9-5,12-.7.57-.6.85.3.85h37.51A3.68,3.68,0,0,1,498.91,58.49Z" transform="translate(0 0)"/><path class="cls-2" d="M251.85,499.15H207.18C88.81,486.93-.58,387.88,0,269.15A229.6,229.6,0,0,1,90.05,87.78c83.5-64.1,200.17-62.76,282.49,2.47a.34.34,0,0,1,.1.47.47.47,0,0,1-.1.1l-32.88,32.9a.5.5,0,0,1-.66,0c-23.07-17-50.33-29.18-78.7-33.63q-72.62-11.39-133,28.8C71.43,156.2,41.29,222.56,47.91,289c7.73,77.61,65.28,142.32,141.21,159.49a183,183,0,0,0,159-38.9c73.41-62.08,85.64-171.15,28.31-248.31a.56.56,0,0,1,0-.79l0,0,32.72-32.76a.61.61,0,0,1,.85,0v0a229.11,229.11,0,0,1,46.85,107.12c11,68.9-11.11,141.76-59.9,193Q338.2,489.65,251.85,499.15Z" transform="translate(0 0)"/><path class="cls-3" d="M162.55,203.55a94.74,94.74,0,0,0,65.36,161.51c44.87.85,84.8-30.18,94.39-74.31q7.45-34.32-9.4-66.09A.54.54,0,0,1,313,224l33.26-33.23a.63.63,0,0,1,.88,0h0l.08.09A141.68,141.68,0,0,1,291.51,398c-78.22,37.76-169.69-2.51-196.77-84.22C82.54,276.94,86.83,234.64,106,201c19.9-34.81,53.42-60.87,93.16-69.19q59.2-12.41,110,21c.55.37.6.78.13,1.25l-33.19,33.16a.64.64,0,0,1-.81.12A94.56,94.56,0,0,0,162.55,203.55Z" transform="translate(0 0)"/><path class="cls-1" d="M211.26,319.86c-36.16-13.88-46.59-60.33-18-87.7q20.13-19.24,50.13-13.2a.46.46,0,0,1,.36.54.46.46,0,0,1-.12.23q-14.08,14.09-28.27,28.12-7.17,7.1-9.15,11.13a26.67,26.67,0,0,0,2.91,27.38,26.14,26.14,0,0,0,32.64,7,37.54,37.54,0,0,0,8.87-7q14.69-14.75,29.64-29.7a.38.38,0,0,1,.54,0h0a.27.27,0,0,1,.1.17c7.41,29.93-10.72,58.95-40.77,65.41A49.8,49.8,0,0,1,211.26,319.86Z" transform="translate(0 0)"/></svg>